# Blender v3.2.2 OBJ File: 'furniture.blend'
# www.blender.org
mtllib Chair.mtl
o Cube.002_Cube.004
v -5.762681 0.864568 0.272906
v -5.762681 1.117839 0.272906
v -6.015952 0.864568 0.272906
v -6.015952 1.117839 0.272906
v -5.762681 0.864568 0.019635
v -5.762681 1.117839 0.019635
v -6.015952 0.864568 0.019635
v -6.015952 1.117839 0.019635
v -4.138330 0.016184 -0.986484
v -4.178857 0.016184 -0.945957
v -4.178857 2.286667 -0.945957
v -4.138330 2.286667 -0.986484
v -4.234047 0.016184 -0.945957
v -4.274574 0.016184 -0.986484
v -4.274574 2.286667 -0.986484
v -4.234047 2.286667 -0.945957
v -4.178857 0.016184 -1.082201
v -4.138330 0.016184 -1.041674
v -4.138330 2.286667 -1.041674
v -4.178857 2.286667 -1.082201
v -4.274574 0.016184 -1.041674
v -4.234047 0.016184 -1.082201
v -4.234047 2.286667 -1.082201
v -4.274574 2.286667 -1.041674
v -4.138330 0.016184 -2.032816
v -4.178857 0.016184 -1.992289
v -4.178857 2.286667 -1.992289
v -4.138330 2.286667 -2.032816
v -4.234047 0.016184 -1.992289
v -4.274574 0.016184 -2.032816
v -4.274574 2.286667 -2.032816
v -4.234047 2.286667 -1.992289
v -4.178857 0.016184 -2.128533
v -4.138330 0.016184 -2.088007
v -4.138330 2.286667 -2.088007
v -4.178857 2.286667 -2.128533
v -4.274574 0.016184 -2.088007
v -4.234047 0.016184 -2.128533
v -4.234047 2.286667 -2.128533
v -4.274574 2.286667 -2.088007
v -3.088617 0.016184 -0.986484
v -3.129144 0.016184 -0.945957
v -3.129144 1.099787 -0.945957
v -3.088617 1.099787 -0.986484
v -3.184334 0.016184 -0.945957
v -3.224861 0.016184 -0.986484
v -3.224861 1.099787 -0.986484
v -3.184334 1.099787 -0.945957
v -3.129144 0.016184 -1.082201
v -3.088617 0.016184 -1.041674
v -3.088617 1.099787 -1.041674
v -3.129144 1.099787 -1.082201
v -3.224861 0.016184 -1.041674
v -3.184334 0.016184 -1.082201
v -3.184334 1.099787 -1.082201
v -3.224861 1.099787 -1.041674
v -3.088617 0.016184 -2.032816
v -3.129144 0.016184 -1.992289
v -3.129144 1.099787 -1.992289
v -3.088617 1.099787 -2.032816
v -3.184334 0.016184 -1.992289
v -3.224861 0.016184 -2.032816
v -3.224861 1.099787 -2.032816
v -3.184334 1.099787 -1.992289
v -3.129144 0.016184 -2.128533
v -3.088617 0.016184 -2.088007
v -3.088617 1.099787 -2.088007
v -3.129144 1.099787 -2.128533
v -3.224861 0.016184 -2.088007
v -3.184334 0.016184 -2.128533
v -3.184334 1.099787 -2.128533
v -3.224861 1.099787 -2.088007
v -3.053073 0.978643 -2.077470
v -3.155586 0.978643 -2.179982
v -3.155586 0.978643 -0.894508
v -3.053073 0.978643 -0.997021
v -4.236034 0.978643 -2.179983
v -4.338547 0.978643 -2.077470
v -4.338547 0.978643 -0.997021
v -4.236034 0.978643 -0.894508
v -3.181543 1.211233 -2.117314
v -3.155586 1.115529 -2.179982
v -3.115741 1.211233 -2.051512
v -3.053073 1.115529 -2.077470
v -3.115741 1.211233 -1.022979
v -3.053073 1.115529 -0.997021
v -3.181544 1.211233 -0.957176
v -3.155586 1.115529 -0.894508
v -4.275879 1.211233 -2.051512
v -4.338547 1.115529 -2.077470
v -4.210076 1.211233 -2.117315
v -4.236034 1.115529 -2.179983
v -4.210076 1.211233 -0.957176
v -4.236034 1.115529 -0.894508
v -4.275879 1.211233 -1.022979
v -4.338547 1.115529 -0.997021
v -3.089093 1.211233 -2.062550
v -3.170506 1.211233 -2.143962
v -4.221115 1.211233 -2.143962
v -4.302527 1.211233 -2.062550
v -4.302527 1.211233 -1.011941
v -4.221115 1.211233 -0.930528
v -3.170506 1.211233 -0.930528
v -3.089093 1.211233 -1.011941
v -3.133786 1.230428 -2.044037
v -3.189018 1.230428 -2.099269
v -4.202602 1.230428 -2.099269
v -4.257833 1.230428 -2.044037
v -4.257833 1.230428 -1.030453
v -4.202602 1.230428 -0.975222
v -3.189018 1.230428 -0.975222
v -3.133787 1.230428 -1.030453
v -3.115741 1.230428 -2.051512
v -3.181543 1.230428 -2.117314
v -4.210076 1.230428 -2.117315
v -4.275879 1.230428 -2.051512
v -4.275879 1.230428 -1.022979
v -4.210076 1.230428 -0.957176
v -3.181544 1.230428 -0.957176
v -3.115741 1.230428 -1.022979
v -4.315972 1.618831 -2.077470
v -4.315972 1.680057 -2.179982
v -4.315972 1.680057 -0.894508
v -4.315972 1.618831 -0.997021
v -4.315972 2.325355 -2.179982
v -4.315972 2.386581 -2.077469
v -4.315972 2.386581 -0.997021
v -4.315972 2.325355 -0.894508
v -4.083382 1.695560 -2.117314
v -4.179086 1.680057 -2.179982
v -4.083382 1.656260 -2.051512
v -4.179086 1.618831 -2.077470
v -4.083382 1.656260 -1.022979
v -4.179086 1.618831 -0.997021
v -4.083382 1.695560 -0.957176
v -4.179086 1.680057 -0.894508
v -4.083382 2.349153 -2.051512
v -4.179086 2.386581 -2.077469
v -4.083382 2.309852 -2.117314
v -4.179086 2.325355 -2.179982
v -4.083382 2.309852 -0.957176
v -4.179086 2.325355 -0.894508
v -4.083382 2.349152 -1.022979
v -4.179086 2.386581 -0.997021
v -4.083382 1.640344 -2.062550
v -4.083382 1.688968 -2.143962
v -4.083382 2.316444 -2.143962
v -4.083382 2.365068 -2.062549
v -4.083382 2.365068 -1.011941
v -4.083382 2.316444 -0.930528
v -4.083382 1.688968 -0.930528
v -4.083382 1.640344 -1.011941
v -4.064187 1.667038 -2.044037
v -4.064187 1.700025 -2.099269
v -4.064187 2.305387 -2.099268
v -4.064187 2.338375 -2.044037
v -4.064187 2.338375 -1.030453
v -4.064187 2.305387 -0.975222
v -4.064187 1.700025 -0.975222
v -4.064187 1.667037 -1.030454
v -4.064187 1.656260 -2.051512
v -4.064187 1.695560 -2.117314
v -4.064187 2.309852 -2.117314
v -4.064187 2.349153 -2.051512
v -4.064187 2.349152 -1.022979
v -4.064187 2.309852 -0.957176
v -4.064187 1.695560 -0.957176
v -4.064187 1.656260 -1.022979
vt 0.625000 0.500000
vt 0.477868 0.500000
vt 0.477868 0.480063
vt 0.625000 0.480063
vt 0.477868 0.519937
vt 0.625000 0.519937
vt 0.625000 0.730063
vt 0.477868 0.730063
vt 0.625000 0.750000
vt 0.477868 0.750000
vt 0.375000 0.769937
vt 0.394937 0.750000
vt 0.605063 0.750000
vt 0.625000 0.769937
vt 0.625000 0.980063
vt 0.605063 1.000000
vt 0.394937 1.000000
vt 0.375000 0.980063
vt 0.477868 0.250000
vt 0.625000 0.250000
vt 0.625000 0.269937
vt 0.477868 0.269937
vt 0.227868 0.519937
vt 0.375000 0.519937
vt 0.375000 0.730063
vt 0.227868 0.730063
vt 0.727868 0.519937
vt 0.875000 0.519937
vt 0.875000 0.730063
vt 0.727868 0.730063
vt 0.612812 0.024985
vt 0.612812 0.225015
vt 0.612812 0.225015
vt 0.612812 0.024985
vt 0.617995 0.022838
vt 0.602162 0.007005
vt 0.605063 0.000000
vt 0.625000 0.019937
vt 0.397838 0.007005
vt 0.382005 0.022838
vt 0.375000 0.019937
vt 0.394937 0.000000
vt 0.382005 0.227162
vt 0.397838 0.242995
vt 0.394937 0.250000
vt 0.375000 0.230063
vt 0.602162 0.242995
vt 0.617995 0.227162
vt 0.625000 0.230063
vt 0.605063 0.250000
vt 0.477868 0.500000
vt 0.625000 0.500000
vt 0.600015 0.012188
vt 0.399985 0.012188
vt 0.387188 0.024985
vt 0.387188 0.225015
vt 0.399985 0.237812
vt 0.600015 0.237812
vt 0.600015 0.237812
vt 0.399985 0.012188
vt 0.387188 0.024985
vt 0.387188 0.225015
vt 0.600015 0.012188
vt 0.399985 0.237812
vt 0.609303 0.026439
vt 0.598561 0.015697
vt 0.401439 0.015697
vt 0.390697 0.026439
vt 0.390697 0.223561
vt 0.401439 0.234303
vt 0.598561 0.234303
vt 0.609303 0.223561
vt 0.625000 0.500000
vt 0.477868 0.500000
vt 0.477868 0.480063
vt 0.625000 0.480063
vt 0.477868 0.519937
vt 0.625000 0.519937
vt 0.625000 0.730063
vt 0.477868 0.730063
vt 0.625000 0.750000
vt 0.477868 0.750000
vt 0.375000 0.769937
vt 0.394937 0.750000
vt 0.605063 0.750000
vt 0.625000 0.769937
vt 0.625000 0.980063
vt 0.605063 1.000000
vt 0.394937 1.000000
vt 0.375000 0.980063
vt 0.477868 0.250000
vt 0.625000 0.250000
vt 0.625000 0.269937
vt 0.477868 0.269937
vt 0.227868 0.519937
vt 0.375000 0.519937
vt 0.375000 0.730063
vt 0.227868 0.730063
vt 0.727868 0.519937
vt 0.875000 0.519937
vt 0.875000 0.730063
vt 0.727868 0.730063
vt 0.612812 0.024985
vt 0.612812 0.225015
vt 0.612812 0.225015
vt 0.612812 0.024985
vt 0.617995 0.022838
vt 0.602162 0.007005
vt 0.605063 0.000000
vt 0.625000 0.019937
vt 0.397838 0.007005
vt 0.382005 0.022838
vt 0.375000 0.019937
vt 0.394937 0.000000
vt 0.382005 0.227162
vt 0.397838 0.242995
vt 0.394937 0.250000
vt 0.375000 0.230063
vt 0.602162 0.242995
vt 0.617995 0.227162
vt 0.625000 0.230063
vt 0.605063 0.250000
vt 0.477868 0.500000
vt 0.625000 0.500000
vt 0.600015 0.012188
vt 0.399985 0.012188
vt 0.387188 0.024985
vt 0.387188 0.225015
vt 0.399985 0.237812
vt 0.600015 0.237812
vt 0.600015 0.237812
vt 0.399985 0.012188
vt 0.387188 0.024985
vt 0.387188 0.225015
vt 0.600015 0.012188
vt 0.399985 0.237812
vt 0.609303 0.026439
vt 0.598561 0.015697
vt 0.401439 0.015697
vt 0.390697 0.026439
vt 0.390697 0.223561
vt 0.401439 0.234303
vt 0.598561 0.234303
vt 0.609303 0.223561
vt 0.625000 0.574364
vt 0.699364 0.500000
vt 0.800636 0.500000
vt 0.875000 0.574364
vt 0.875000 0.675636
vt 0.800636 0.750000
vt 0.699364 0.750000
vt 0.625000 0.675636
vt 0.375000 0.574364
vt 0.375000 0.675636
vt 0.125000 0.574364
vt 0.199364 0.500000
vt 0.300636 0.500000
vt 0.300636 0.750000
vt 0.199364 0.750000
vt 0.125000 0.675636
vt 0.375000 0.074364
vt 0.625000 0.074364
vt 0.625000 0.175636
vt 0.375000 0.175636
vt 0.375000 0.324364
vt 0.625000 0.324364
vt 0.625000 0.425636
vt 0.375000 0.425636
vt 0.375000 0.824364
vt 0.625000 0.824364
vt 0.625000 0.925636
vt 0.375000 0.925636
vt 0.625000 0.574364
vt 0.699364 0.500000
vt 0.800636 0.500000
vt 0.875000 0.574364
vt 0.875000 0.675636
vt 0.800636 0.750000
vt 0.699364 0.750000
vt 0.625000 0.675636
vt 0.375000 0.574364
vt 0.375000 0.675636
vt 0.125000 0.574364
vt 0.199364 0.500000
vt 0.300636 0.500000
vt 0.300636 0.750000
vt 0.199364 0.750000
vt 0.125000 0.675636
vt 0.375000 0.074364
vt 0.625000 0.074364
vt 0.625000 0.175636
vt 0.375000 0.175636
vt 0.375000 0.324364
vt 0.625000 0.324364
vt 0.625000 0.425636
vt 0.375000 0.425636
vt 0.375000 0.824364
vt 0.625000 0.824364
vt 0.625000 0.925636
vt 0.375000 0.925636
vt 0.625000 0.574364
vt 0.699364 0.500000
vt 0.800636 0.500000
vt 0.875000 0.574364
vt 0.875000 0.675636
vt 0.800636 0.750000
vt 0.699364 0.750000
vt 0.625000 0.675636
vt 0.375000 0.574364
vt 0.375000 0.675636
vt 0.125000 0.574364
vt 0.199364 0.500000
vt 0.300636 0.500000
vt 0.300636 0.750000
vt 0.199364 0.750000
vt 0.125000 0.675636
vt 0.375000 0.074364
vt 0.625000 0.074364
vt 0.625000 0.175636
vt 0.375000 0.175636
vt 0.375000 0.324364
vt 0.625000 0.324364
vt 0.625000 0.425636
vt 0.375000 0.425636
vt 0.375000 0.824364
vt 0.625000 0.824364
vt 0.625000 0.925636
vt 0.375000 0.925636
vt 0.625000 0.574364
vt 0.699364 0.500000
vt 0.800636 0.500000
vt 0.875000 0.574364
vt 0.875000 0.675636
vt 0.800636 0.750000
vt 0.699364 0.750000
vt 0.625000 0.675636
vt 0.375000 0.574364
vt 0.375000 0.675636
vt 0.125000 0.574364
vt 0.199364 0.500000
vt 0.300636 0.500000
vt 0.300636 0.750000
vt 0.199364 0.750000
vt 0.125000 0.675636
vt 0.375000 0.074364
vt 0.625000 0.074364
vt 0.625000 0.175636
vt 0.375000 0.175636
vt 0.375000 0.324364
vt 0.625000 0.324364
vt 0.625000 0.425636
vt 0.375000 0.425636
vt 0.625000 0.824364
vt 0.375000 0.824364
vt 0.375000 0.000000
vt 0.625000 0.000000
vt 0.375000 0.000000
vt 0.625000 0.000000
vt 0.375000 0.000000
vt 0.625000 0.000000
vt 0.375000 0.000000
vt 0.625000 0.000000
vt 0.625000 0.925636
vt 0.375000 0.925636
vn 0.7071 0.0000 0.7071
vn -1.0000 0.0000 -0.0000
vn -0.7071 0.0000 -0.7071
vn 0.0000 1.0000 0.0000
vn 0.7071 0.0000 -0.7071
vn -0.0000 0.0000 1.0000
vn 1.0000 0.0000 0.0000
vn 0.0000 0.0000 -1.0000
vn -0.6618 -0.3522 0.6618
vn 0.6618 -0.3522 0.6618
vn 0.6618 -0.3522 -0.6618
vn -0.6618 -0.3522 -0.6618
vn -0.0000 -0.3522 0.9359
vn -0.9359 -0.3522 -0.0000
vn 0.9359 -0.3522 0.0000
vn 0.0000 -0.3522 -0.9359
vn -0.7071 0.0000 0.7071
vn 0.0000 -1.0000 0.0000
vn 0.0000 -0.8585 0.5128
vn 0.0000 0.8585 -0.5128
vn 0.0000 -0.8585 -0.5128
vn -0.2633 0.8282 0.4947
vn -0.2633 -0.8282 0.4947
vn -0.2633 -0.8282 -0.4947
vn -0.2633 0.8282 -0.4947
vn -0.3522 -0.0000 0.9359
vn -0.2193 0.9757 0.0000
vn -0.2193 -0.9757 0.0000
vn -0.3522 0.0000 -0.9359
vn 0.0000 0.8585 0.5128
vn 0.0000 -0.8585 -0.5127
usemtl wood
s off
f 77/1/1 92/2/1 90/3/1 78/4/1
f 84/5/2 73/6/2 76/7/2 86/8/2
f 75/9/3 88/10/3 86/8/3 76/7/3
f 73/11/4 74/12/4 77/13/4 78/14/4 79/15/4 80/16/4 75/17/4 76/18/4
f 94/19/5 80/20/5 79/21/5 96/22/5
f 92/23/6 77/24/6 74/25/6 82/26/6
f 96/22/7 79/21/7 78/4/7 90/3/7
f 88/27/8 75/28/8 80/29/8 94/30/8
f 83/31/2 85/32/2 120/33/2 113/34/2
f 97/35/9 98/36/9 82/37/9 84/38/9
f 99/39/10 100/40/10 90/41/10 92/42/10
f 101/43/11 102/44/11 94/45/11 96/46/11
f 103/47/12 104/48/12 86/49/12 88/50/12
f 98/36/13 99/39/13 92/42/13 82/37/13
f 104/48/14 97/35/14 84/38/14 86/49/14
f 96/46/15 90/41/15 100/40/15 101/43/15
f 88/50/16 94/45/16 102/44/16 103/47/16
f 73/6/17 84/5/17 82/51/17 74/52/17
f 83/31/18 81/53/18 98/36/18 97/35/18
f 91/54/18 89/55/18 100/40/18 99/39/18
f 95/56/18 93/57/18 102/44/18 101/43/18
f 87/58/18 85/32/18 104/48/18 103/47/18
f 81/53/18 91/54/18 99/39/18 98/36/18
f 85/32/18 83/31/18 97/35/18 104/48/18
f 89/55/18 95/56/18 101/43/18 100/40/18
f 93/57/18 87/58/18 103/47/18 102/44/18
f 85/32/3 87/58/3 119/59/3 120/33/3
f 89/55/1 91/54/1 115/60/1 116/61/1
f 95/56/7 89/55/7 116/61/7 117/62/7
f 91/54/6 81/53/6 114/63/6 115/60/6
f 93/57/5 95/56/5 117/62/5 118/64/5
f 81/53/17 83/31/17 113/34/17 114/63/17
f 87/58/8 93/57/8 118/64/8 119/59/8
f 105/65/18 106/66/18 114/63/18 113/34/18
f 107/67/18 108/68/18 116/61/18 115/60/18
f 109/69/18 110/70/18 118/64/18 117/62/18
f 111/71/18 112/72/18 120/33/18 119/59/18
f 106/66/18 107/67/18 115/60/18 114/63/18
f 112/72/18 105/65/18 113/34/18 120/33/18
f 108/68/18 109/69/18 117/62/18 116/61/18
f 110/70/18 111/71/18 119/59/18 118/64/18
f 125/73/19 140/74/19 138/75/19 126/76/19
f 132/77/4 121/78/4 124/79/4 134/80/4
f 123/81/20 136/82/20 134/80/20 124/79/20
f 121/83/7 122/84/7 125/85/7 126/86/7 127/87/7 128/88/7 123/89/7 124/90/7
f 142/91/21 128/92/21 127/93/21 144/94/21
f 140/95/6 125/96/6 122/97/6 130/98/6
f 144/94/18 127/93/18 126/76/18 138/75/18
f 136/99/8 123/100/8 128/101/8 142/102/8
f 131/103/4 133/104/4 168/105/4 161/106/4
f 145/107/22 146/108/22 130/109/22 132/110/22
f 147/111/23 148/112/23 138/113/23 140/114/23
f 149/115/24 150/116/24 142/117/24 144/118/24
f 151/119/25 152/120/25 134/121/25 136/122/25
f 146/108/26 147/111/26 140/114/26 130/109/26
f 152/120/27 145/107/27 132/110/27 134/121/27
f 144/118/28 138/113/28 148/112/28 149/115/28
f 136/122/29 142/117/29 150/116/29 151/119/29
f 121/78/30 132/77/30 130/123/30 122/124/30
f 131/103/2 129/125/2 146/108/2 145/107/2
f 139/126/2 137/127/2 148/112/2 147/111/2
f 143/128/2 141/129/2 150/116/2 149/115/2
f 135/130/2 133/104/2 152/120/2 151/119/2
f 129/125/2 139/126/2 147/111/2 146/108/2
f 133/104/2 131/103/2 145/107/2 152/120/2
f 137/127/2 143/128/2 149/115/2 148/112/2
f 141/129/2 135/130/2 151/119/2 150/116/2
f 133/104/20 135/130/20 167/131/20 168/105/20
f 137/127/19 139/126/19 163/132/19 164/133/19
f 143/128/18 137/127/18 164/133/18 165/134/18
f 139/126/6 129/125/6 162/135/6 163/132/6
f 141/129/31 143/128/31 165/134/31 166/136/31
f 129/125/30 131/103/30 161/106/30 162/135/30
f 135/130/8 141/129/8 166/136/8 167/131/8
f 153/137/2 154/138/2 162/135/2 161/106/2
f 155/139/2 156/140/2 164/133/2 163/132/2
f 157/141/2 158/142/2 166/136/2 165/134/2
f 159/143/2 160/144/2 168/105/2 167/131/2
f 154/138/2 155/139/2 163/132/2 162/135/2
f 160/144/2 153/137/2 161/106/2 168/105/2
f 156/140/2 157/141/2 165/134/2 164/133/2
f 158/142/2 159/143/2 167/131/2 166/136/2
s 1
f 23/145/4 24/146/4 15/147/4 16/148/4 11/149/4 12/150/4 19/151/4 20/152/4
f 22/153/8 23/145/8 20/152/8 17/154/8
f 13/155/18 14/156/18 21/157/18 22/153/18 17/154/18 18/158/18 9/159/18 10/160/18
f 10/161/6 11/162/6 16/163/6 13/164/6
f 14/165/2 15/166/2 24/167/2 21/168/2
f 34/169/7 35/170/7 28/171/7 25/172/7
f 39/173/4 40/174/4 31/175/4 32/176/4 27/177/4 28/178/4 35/179/4 36/180/4
f 38/181/8 39/173/8 36/180/8 33/182/8
f 29/183/18 30/184/18 37/185/18 38/181/18 33/182/18 34/186/18 25/187/18 26/188/18
f 26/189/6 27/190/6 32/191/6 29/192/6
f 30/193/2 31/194/2 40/195/2 37/196/2
f 50/197/7 51/198/7 44/199/7 41/200/7
f 55/201/4 56/202/4 47/203/4 48/204/4 43/205/4 44/206/4 51/207/4 52/208/4
f 54/209/8 55/201/8 52/208/8 49/210/8
f 45/211/18 46/212/18 53/213/18 54/209/18 49/210/18 50/214/18 41/215/18 42/216/18
f 42/217/6 43/218/6 48/219/6 45/220/6
f 46/221/2 47/222/2 56/223/2 53/224/2
f 66/225/7 67/226/7 60/227/7 57/228/7
f 71/229/4 72/230/4 63/231/4 64/232/4 59/233/4 60/234/4 67/235/4 68/236/4
f 70/237/8 71/229/8 68/236/8 65/238/8
f 61/239/18 62/240/18 69/241/18 70/237/18 65/238/18 66/242/18 57/243/18 58/244/18
f 58/245/6 59/246/6 64/247/6 61/248/6
f 62/249/2 63/250/2 72/251/2 69/252/2
f 19/253/5 18/254/5 17/154/5 20/152/5
f 23/145/3 22/153/3 21/168/3 24/167/3
f 15/166/17 14/165/17 13/164/17 16/163/17
f 9/255/1 12/256/1 11/162/1 10/161/1
f 35/170/5 34/169/5 33/182/5 36/180/5
f 39/173/3 38/181/3 37/196/3 40/195/3
f 31/194/17 30/193/17 29/192/17 32/191/17
f 25/257/1 28/258/1 27/190/1 26/189/1
f 51/198/5 50/197/5 49/210/5 52/208/5
f 55/201/3 54/209/3 53/224/3 56/223/3
f 47/222/17 46/221/17 45/220/17 48/219/17
f 41/259/1 44/260/1 43/218/1 42/217/1
f 67/226/5 66/225/5 65/238/5 68/236/5
f 71/229/3 70/237/3 69/252/3 72/251/3
f 63/250/17 62/249/17 61/248/17 64/247/17
f 57/261/1 60/262/1 59/246/1 58/245/1
f 18/254/7 19/253/7 12/263/7 9/264/7
usemtl wood_highlight
s off
f 108/68/18 107/67/18 106/66/18 105/65/18 112/72/18 111/71/18 110/70/18 109/69/18
f 156/140/2 155/139/2 154/138/2 153/137/2 160/144/2 159/143/2 158/142/2 157/141/2
