# Blender v3.2.2 OBJ File: 'furniture.blend'
# www.blender.org
mtllib counter_corner_flip.mtl
o end_counter.001_Cube.020
v -1.000000 2.376910 10.194446
v -1.000000 2.376910 12.194446
v 0.087022 1.253307 10.194446
v 0.087022 1.253307 12.194446
v -1.000000 2.526070 10.194446
v -1.000000 2.526070 12.194446
v -1.132581 2.377757 10.194446
v -1.132581 2.377757 12.194446
v -1.000000 1.316585 10.194446
v -0.936722 1.253307 10.194446
v -0.936722 1.253307 12.194446
v -1.000000 1.316585 12.194446
v 0.948780 2.526070 12.194446
v 1.000000 2.376910 12.194446
v 1.000000 2.376910 10.194446
v 0.948780 2.526070 10.194446
v 0.087022 1.881765 10.194446
v 0.582167 2.376910 10.194446
v -0.408123 2.376910 10.194446
v 0.124713 2.071249 10.194446
v 0.232047 2.231886 10.194446
v 0.392684 2.339220 10.194446
v 0.582167 2.376910 12.194446
v 0.087022 1.881765 12.194446
v -0.408123 2.376910 12.194446
v 0.392684 2.339220 12.194446
v 0.232047 2.231886 12.194446
v 0.124713 2.071249 12.194446
v -1.051681 2.526070 10.194446
v -1.102347 2.505083 10.194446
v -1.064636 2.524472 10.194446
v -1.078814 2.519923 10.194446
v -1.092057 2.513114 10.194446
v -1.111594 2.495836 10.194446
v -1.132581 2.445170 10.194446
v -1.119625 2.485546 10.194446
v -1.126434 2.472304 10.194446
v -1.130983 2.458126 10.194446
v -1.132581 2.445170 12.194446
v -1.111594 2.495836 12.194446
v -1.130983 2.458126 12.194446
v -1.126434 2.472304 12.194446
v -1.119625 2.485546 12.194446
v -1.102347 2.505083 12.194446
v -1.051681 2.526070 12.194446
v -1.092057 2.513114 12.194446
v -1.078814 2.519923 12.194446
v -1.064636 2.524472 12.194446
v -1.000000 2.376910 10.441991
v 0.087022 1.253307 10.441991
v -1.000000 2.526070 10.441991
v -1.132581 2.377757 10.441991
v -0.936722 1.253307 10.441991
v -1.000000 1.316585 10.441991
v 0.948780 2.526070 10.441991
v 1.000000 2.376910 10.441991
v 0.582167 2.376910 10.441991
v 0.392684 2.339220 10.441991
v 0.232047 2.231886 10.441991
v 0.124713 2.071249 10.441991
v 0.087022 1.881765 10.441991
v -1.051681 2.526070 10.441991
v -1.064636 2.524472 10.441991
v -1.078814 2.519923 10.441991
v -1.092057 2.513114 10.441991
v -1.102347 2.505083 10.441991
v -1.132581 2.445170 10.441991
v -1.130983 2.458126 10.441991
v -1.126434 2.472304 10.441991
v -1.119625 2.485546 10.441991
v -1.111594 2.495836 10.441991
v 0.991420 1.881765 10.194446
v 0.991420 2.071249 10.194446
v 0.991420 2.231886 10.194446
v 0.991420 2.339220 10.194446
v 0.991420 2.376910 10.194446
v 0.991420 2.376910 10.441991
v 0.991420 1.253307 10.194446
v 0.991420 1.253307 10.441991
v 0.991420 2.339220 10.441991
v 0.991420 2.231886 10.441991
v 0.991420 2.071249 10.441991
v 0.991420 1.881765 10.441991
v -1.000000 2.376910 10.055996
v -1.000000 2.526070 10.055996
v -1.132581 2.377757 10.055996
v 0.948780 2.526070 10.055996
v 1.000000 2.376910 10.055996
v 0.582167 2.376910 10.055996
v -0.408123 2.376910 10.055996
v -1.064636 2.524472 10.055996
v -1.051681 2.526070 10.055996
v -1.078814 2.519923 10.055996
v -1.092057 2.513114 10.055996
v -1.102347 2.505083 10.055996
v -1.132581 2.445170 10.055996
v -1.130983 2.458126 10.055996
v -1.126434 2.472304 10.055996
v -1.119625 2.485546 10.055996
v -1.111594 2.495836 10.055996
vt 0.375000 0.750000
vt 0.375000 0.992090
vt 0.389069 1.000000
vt 0.625000 1.000000
vt 0.625000 0.863876
vt 0.514831 0.750000
vt 0.389069 0.030943
vt 0.389069 0.250000
vt 0.625000 0.250000
vt 0.625000 0.030943
vt 0.375000 0.719057
vt 0.375000 0.719057
vt 0.514831 0.719057
vt 0.514831 0.719057
vt 0.625000 0.030943
vt 0.625000 0.000000
vt 0.625000 0.000000
vt 0.132910 0.719057
vt 0.125000 0.719057
vt 0.125000 0.750000
vt 0.132910 0.750000
vt 0.375000 0.257910
vt 0.375000 0.500000
vt 0.514831 0.500000
vt 0.625000 0.386124
vt 0.556991 0.750000
vt 0.592732 0.750000
vt 0.616614 0.750000
vt 0.625000 0.750000
vt 0.625000 0.500000
vt 0.625000 0.500000
vt 0.625000 0.500000
vt 0.625000 0.500000
vt 0.625000 0.500000
vt 0.556991 0.719057
vt 0.556991 0.719057
vt 0.514831 0.750000
vt 0.375000 0.750000
vt 0.592732 0.750000
vt 0.556991 0.750000
vt 0.625000 0.719057
vt 0.625000 0.719057
vt 0.625000 0.719057
vt 0.625000 0.719057
vt 0.625000 0.719057
vt 0.625000 0.500000
vt 0.625000 0.750000
vt 0.556991 0.500000
vt 0.625000 0.719057
vt 0.132910 0.500000
vt 0.125000 0.500000
vt 0.625000 0.250000
vt 0.389069 0.000000
vt 0.625000 0.750000
vt 0.625000 0.750000
vt 0.625000 0.719057
vt 0.625000 0.750000
vt 0.616614 0.750000
vt 0.625000 1.000000
vt 0.625000 0.863876
vt 0.625000 0.750000
vt 0.625000 0.000000
vt 0.625000 0.000000
vt 0.625000 0.750000
vt 0.875000 0.750000
vt 0.875000 0.750000
vt 0.875000 0.750000
vt 0.875000 0.750000
vt 0.631403 0.750000
vt 0.631403 0.750000
vt 0.631403 0.719057
vt 0.875000 0.750000
vt 0.875000 0.719057
vt 0.625000 0.493597
vt 0.625000 0.250000
vt 0.625000 0.030943
vt 0.625000 0.000000
vt 0.625000 0.250000
vt 0.625000 0.250000
vt 0.625000 0.250000
vt 0.625000 0.250000
vt 0.625000 0.250000
vt 0.625000 0.250000
vt 0.625000 0.250000
vt 0.625000 0.250000
vt 0.625000 0.250000
vt 0.625000 0.250000
vt 0.875000 0.719057
vt 0.875000 0.500000
vt 0.875000 0.500000
vt 0.875000 0.719057
vt 0.875000 0.500000
vt 0.875000 0.719057
vt 0.875000 0.500000
vt 0.625000 0.030943
vt 0.625000 0.030943
vt 0.625000 0.030943
vt 0.625000 0.030943
vt 0.625000 0.000000
vt 0.625000 0.030943
vt 0.625000 0.000000
vt 0.625000 0.030943
vt 0.625000 0.000000
vt 0.625000 0.030943
vt 0.625000 0.000000
vt 0.625000 0.000000
vt 0.625000 0.000000
vt 0.625000 0.000000
vt 0.875000 0.750000
vt 0.631403 0.500000
vt 0.625000 1.000000
vt 0.625000 0.756402
vt 0.625000 1.000000
vt 0.625000 1.000000
vt 0.625000 1.000000
vt 0.625000 1.000000
vt 0.625000 1.000000
vt 0.625000 1.000000
vt 0.625000 1.000000
vt 0.625000 1.000000
vt 0.625000 1.000000
vt 0.625000 1.000000
vt 0.625000 1.000000
vt 0.875000 0.750000
vt 0.875000 0.750000
vt 0.625000 0.000000
vt 0.625000 0.000000
vt 0.625000 0.000000
vt 0.625000 0.000000
vt 0.625000 0.000000
vt 0.625000 0.000000
vt 0.625000 0.000000
vt 0.625000 0.000000
vn -0.0000 0.0000 -1.0000
vn -1.0000 0.0000 0.0000
vn 0.0000 0.0000 1.0000
vn -0.0064 -1.0000 0.0000
vn -0.0043 -1.0000 0.0000
vn -0.7071 -0.7071 0.0000
vn 0.0000 -1.0000 0.0000
vn 0.0653 -0.9979 0.0000
vn 0.0980 -0.9952 0.0000
vn 0.9239 -0.3827 0.0000
vn 0.9952 -0.0980 0.0000
vn 0.7071 -0.7071 0.0000
vn 0.3827 -0.9239 0.0000
vn 1.0000 0.0000 0.0000
vn 0.0000 1.0000 0.0000
vn -0.0032 -1.0000 0.0000
vn -0.2149 0.9766 0.0000
vn -0.3827 0.9239 0.0000
vn 0.9458 0.3248 0.0000
vn -0.9981 0.0613 0.0000
vn -0.0613 0.9981 0.0000
vn -0.5386 0.8425 0.0000
vn -0.6624 0.7491 0.0000
vn -0.9766 0.2149 0.0000
vn -0.9239 0.3827 0.0000
vn -0.8425 0.5386 0.0000
vn -0.7491 0.6624 0.0000
usemtl base
s 1
f 3/1/1 10/2/1 9/3/1 1/4/1 19/5/1 17/6/1
f 54/7/2 12/8/2 2/9/2 49/10/2
f 50/11/3 79/12/3 83/13/3 61/14/3
f 49/10/4 52/15/4 7/16/4 1/17/5
f 53/18/6 54/19/6 9/20/6 10/21/6
f 53/18/7 10/21/7 3/1/7 50/11/7
f 11/22/3 4/23/3 24/24/3 25/25/3 2/9/3 12/8/3
f 17/6/1 19/5/1 20/26/1
f 20/26/1 19/5/1 21/27/1
f 21/27/1 19/5/1 22/28/1
f 22/28/1 19/5/1 18/29/1
f 23/30/3 25/25/3 26/31/3
f 26/31/3 25/25/3 27/32/3
f 27/32/3 25/25/3 28/33/3
f 28/33/3 25/25/3 24/34/3
f 61/14/3 83/13/3 82/35/3 60/36/3
f 17/6/1 72/37/1 78/38/1 3/1/1
f 21/27/1 74/39/1 73/40/1 20/26/1
f 58/41/3 80/42/3 77/43/3 57/44/3
f 57/44/8 56/45/7 14/46/7 23/30/9
f 18/29/7 15/47/7 56/45/7 57/44/8
f 28/48/10 24/24/11 61/14/11 60/36/10
f 27/32/12 28/48/10 60/36/10 59/49/12
f 26/31/13 27/32/12 59/49/12 58/41/13
f 23/30/9 26/31/13 58/41/13 57/44/8
f 11/50/7 53/18/7 50/11/7 4/23/7
f 11/50/6 12/51/6 54/19/6 53/18/6
f 2/9/4 8/52/4 52/15/4 49/10/4
f 4/23/14 50/11/14 61/14/11 24/24/11
f 9/53/2 54/7/2 49/10/2 1/17/2
f 79/12/14 78/38/14 72/37/14 83/13/14
f 77/43/14 80/42/14 75/54/14 76/55/14
f 80/42/14 81/56/14 74/57/14 75/54/14
f 81/56/14 82/35/14 73/40/14 74/57/14
f 82/35/14 83/13/14 72/37/14 73/40/14
f 22/28/1 75/58/1 74/39/1 21/27/1
f 60/36/3 82/35/3 81/56/3 59/49/3
f 18/29/1 76/55/1 75/58/1 22/28/1
f 59/49/3 81/56/3 80/42/3 58/41/3
f 3/1/7 78/38/7 79/12/7 50/11/7
f 20/26/1 73/40/1 72/37/1 17/6/1
f 57/44/15 77/43/15 76/55/15 18/29/15
f 1/4/5 84/59/16 90/60/7 19/5/7
f 19/5/7 90/60/7 89/61/7 18/29/7
f 7/16/4 86/62/4 84/63/16 1/17/5
f 18/29/7 89/61/7 88/64/7 15/47/7
usemtl polished_wood
f 31/65/17 91/66/17 93/67/18 32/68/18
f 15/47/19 88/64/19 87/69/19 16/70/19
f 55/71/15 16/70/15 5/72/15 51/73/15
f 23/30/3 14/46/3 13/74/3 6/75/3 2/9/3 25/25/3
f 52/15/2 67/76/20 35/77/20 7/16/2
f 6/75/3 45/78/3 48/79/3 47/80/3 46/81/3 44/82/3 40/83/3 43/84/3 42/85/3 41/86/3 39/87/3 8/52/3 2/9/3
f 55/71/19 56/45/19 15/47/19 16/70/19
f 51/73/15 62/88/21 45/89/21 6/90/15
f 62/88/21 63/91/17 48/92/17 45/89/21
f 63/91/17 64/93/18 47/94/18 48/92/17
f 64/95/18 65/96/22 46/81/22 47/80/18
f 65/96/22 66/97/23 44/82/23 46/81/22
f 67/76/20 68/98/24 38/99/24 35/77/20
f 68/98/24 69/100/25 37/101/25 38/99/24
f 69/100/25 70/102/26 36/103/26 37/101/25
f 70/102/26 71/104/27 34/105/27 36/103/26
f 66/97/23 71/104/27 40/83/27 44/82/23
f 30/106/23 34/105/27 71/104/27 66/97/23
f 43/84/26 40/83/27 71/104/27 70/102/26
f 42/85/25 43/84/26 70/102/26 69/100/25
f 41/86/24 42/85/25 69/100/25 68/98/24
f 39/87/20 41/86/24 68/98/24 67/76/20
f 33/107/22 30/106/23 66/97/23 65/96/22
f 32/108/18 33/107/22 65/96/22 64/95/18
f 31/65/17 32/68/18 64/93/18 63/91/17
f 29/109/21 31/65/17 63/91/17 62/88/21
f 5/72/15 29/109/21 62/88/21 51/73/15
f 13/110/19 14/46/19 56/45/19 55/71/19
f 8/52/2 39/87/20 67/76/20 52/15/2
f 13/110/15 55/71/15 51/73/15 6/90/15
f 84/59/1 85/111/1 87/112/1 88/64/1 89/61/1 90/60/1
f 84/59/1 86/113/1 96/114/1 97/115/1 98/116/1 99/117/1 100/118/1 95/119/1 94/120/1 93/121/1 91/122/1 92/123/1 85/111/1
f 5/72/15 85/124/15 92/125/21 29/109/21
f 36/103/26 99/126/26 98/127/25 37/101/25
f 32/108/18 93/128/18 94/129/22 33/107/22
f 16/70/15 87/69/15 85/124/15 5/72/15
f 29/109/21 92/125/21 91/66/17 31/65/17
f 38/99/24 97/130/24 96/131/20 35/77/20
f 35/77/20 96/131/20 86/62/2 7/16/2
f 34/105/27 100/132/27 99/126/26 36/103/26
f 33/107/22 94/129/22 95/133/23 30/106/23
f 37/101/25 98/127/25 97/130/24 38/99/24
f 30/106/23 95/133/23 100/132/27 34/105/27
