# Blender v3.2.2 OBJ File: 'counter.blend'
# www.blender.org
mtllib counter door.mtl
o counter_door_Cube.003
v -1.000000 1.118578 -2.001693
v -1.000000 1.118578 -2.398307
v 0.087022 -0.005026 -2.001693
v 0.087022 -0.005026 -2.398307
v -1.000000 1.267738 -2.001693
v -1.000000 1.267738 -2.398307
v -1.132581 1.119425 -2.001693
v -1.132581 1.119425 -2.398307
v -1.000000 0.058253 -2.001693
v -0.936722 -0.005026 -2.001693
v -0.936722 -0.005026 -2.398307
v -1.000000 0.058253 -2.398307
v 0.948780 1.267738 -2.398307
v 1.000000 1.118578 -2.398307
v 1.000000 1.118578 -2.001693
v 0.948780 1.267738 -2.001693
v 0.087022 0.623433 -2.001693
v 0.582167 1.118578 -2.001693
v -0.408123 1.118578 -2.001693
v 0.124713 0.812917 -2.001693
v 0.232047 0.973553 -2.001693
v 0.392684 1.080887 -2.001693
v 0.582167 1.118578 -2.398307
v 0.087022 0.623433 -2.398307
v -0.408123 1.118578 -2.398307
v 0.392684 1.080887 -2.398307
v 0.232047 0.973553 -2.398307
v 0.124713 0.812917 -2.398307
v -1.051681 1.267738 -2.001693
v -1.102347 1.246751 -2.001693
v -1.064636 1.266140 -2.001693
v -1.078814 1.261591 -2.001693
v -1.092057 1.254782 -2.001693
v -1.111594 1.237504 -2.001693
v -1.132581 1.186838 -2.001693
v -1.119625 1.227213 -2.001693
v -1.126434 1.213971 -2.001693
v -1.130983 1.199793 -2.001693
v -1.132581 1.186838 -2.398307
v -1.111594 1.237504 -2.398307
v -1.130983 1.199793 -2.398307
v -1.126434 1.213971 -2.398307
v -1.119625 1.227213 -2.398307
v -1.102347 1.246751 -2.398307
v -1.051681 1.267738 -2.398307
v -1.092057 1.254782 -2.398307
v -1.078814 1.261591 -2.398307
v -1.064636 1.266140 -2.398307
v -1.000000 1.118578 -3.601693
v -1.000000 1.118578 -3.998307
v 0.087022 -0.005026 -3.601693
v 0.087022 -0.005026 -3.998307
v -1.000000 1.267738 -3.601693
v -1.000000 1.267738 -3.998307
v -1.132581 1.119425 -3.601693
v -1.132581 1.119425 -3.998307
v -1.000000 0.058253 -3.601693
v -0.936722 -0.005026 -3.601693
v -0.936722 -0.005026 -3.998307
v -1.000000 0.058253 -3.998307
v 0.948780 1.267738 -3.998307
v 1.000000 1.118578 -3.998307
v 1.000000 1.118578 -3.601693
v 0.948780 1.267738 -3.601693
v 0.087022 0.623433 -3.601693
v 0.582167 1.118578 -3.601693
v -0.408123 1.118578 -3.601693
v 0.124713 0.812917 -3.601693
v 0.232047 0.973553 -3.601693
v 0.392684 1.080887 -3.601693
v 0.582167 1.118578 -3.998307
v 0.087022 0.623433 -3.998307
v -0.408123 1.118578 -3.998307
v 0.392684 1.080887 -3.998307
v 0.232047 0.973553 -3.998307
v 0.124713 0.812917 -3.998307
v -1.051681 1.267738 -3.601693
v -1.102347 1.246751 -3.601693
v -1.064636 1.266140 -3.601693
v -1.078814 1.261591 -3.601693
v -1.092057 1.254782 -3.601693
v -1.111594 1.237504 -3.601693
v -1.132581 1.186838 -3.601693
v -1.119625 1.227213 -3.601693
v -1.126434 1.213971 -3.601693
v -1.130983 1.199793 -3.601693
v -1.132581 1.186838 -3.998307
v -1.111594 1.237504 -3.998307
v -1.130983 1.199793 -3.998307
v -1.126434 1.213971 -3.998307
v -1.119625 1.227213 -3.998307
v -1.102347 1.246751 -3.998307
v -1.051681 1.267738 -3.998307
v -1.092057 1.254782 -3.998307
v -1.078814 1.261591 -3.998307
v -1.064636 1.266140 -3.998307
vt 0.375000 0.750000
vt 0.514831 0.750000
vt 0.625000 0.863876
vt 0.625000 1.000000
vt 0.389069 1.000000
vt 0.375000 0.992090
vt 0.389069 0.000000
vt 0.625000 0.000000
vt 0.625000 0.250000
vt 0.389069 0.250000
vt 0.375000 0.500000
vt 0.514831 0.500000
vt 0.625000 0.000000
vt 0.625000 0.250000
vt 0.132910 0.500000
vt 0.132910 0.750000
vt 0.125000 0.750000
vt 0.125000 0.500000
vt 0.375000 0.257910
vt 0.625000 0.386124
vt 0.556991 0.750000
vt 0.592732 0.750000
vt 0.616614 0.750000
vt 0.625000 0.750000
vt 0.625000 0.500000
vt 0.625000 0.500000
vt 0.625000 0.500000
vt 0.625000 0.500000
vt 0.625000 0.500000
vt 0.625000 0.750000
vt 0.625000 0.750000
vt 0.556991 0.500000
vt 0.625000 0.500000
vt 0.625000 0.750000
vt 0.375000 0.750000
vt 0.514831 0.750000
vt 0.625000 0.863876
vt 0.625000 1.000000
vt 0.389069 1.000000
vt 0.375000 0.992090
vt 0.389069 0.000000
vt 0.625000 0.000000
vt 0.625000 0.250000
vt 0.389069 0.250000
vt 0.375000 0.500000
vt 0.514831 0.500000
vt 0.625000 0.000000
vt 0.625000 0.250000
vt 0.132910 0.500000
vt 0.132910 0.750000
vt 0.125000 0.750000
vt 0.125000 0.500000
vt 0.375000 0.257910
vt 0.625000 0.386124
vt 0.556991 0.750000
vt 0.592732 0.750000
vt 0.616614 0.750000
vt 0.625000 0.750000
vt 0.625000 0.500000
vt 0.625000 0.500000
vt 0.625000 0.500000
vt 0.625000 0.500000
vt 0.625000 0.500000
vt 0.625000 0.750000
vt 0.625000 0.750000
vt 0.556991 0.500000
vt 0.625000 0.500000
vt 0.625000 0.750000
vt 0.625000 0.756402
vt 0.625000 1.000000
vt 0.625000 1.000000
vt 0.625000 1.000000
vt 0.625000 1.000000
vt 0.625000 1.000000
vt 0.625000 1.000000
vt 0.625000 1.000000
vt 0.625000 1.000000
vt 0.625000 1.000000
vt 0.625000 1.000000
vt 0.625000 1.000000
vt 0.625000 1.000000
vt 0.631403 0.500000
vt 0.875000 0.500000
vt 0.875000 0.750000
vt 0.631403 0.750000
vt 0.625000 0.250000
vt 0.625000 0.493597
vt 0.625000 0.000000
vt 0.625000 0.250000
vt 0.625000 0.250000
vt 0.625000 0.250000
vt 0.625000 0.250000
vt 0.625000 0.250000
vt 0.625000 0.250000
vt 0.625000 0.250000
vt 0.625000 0.250000
vt 0.625000 0.250000
vt 0.625000 0.250000
vt 0.875000 0.500000
vt 0.875000 0.750000
vt 0.875000 0.500000
vt 0.875000 0.750000
vt 0.875000 0.500000
vt 0.875000 0.750000
vt 0.625000 0.000000
vt 0.625000 0.000000
vt 0.625000 0.000000
vt 0.625000 0.000000
vt 0.625000 0.000000
vt 0.625000 0.000000
vt 0.625000 0.000000
vt 0.625000 0.756402
vt 0.625000 1.000000
vt 0.625000 1.000000
vt 0.625000 1.000000
vt 0.625000 1.000000
vt 0.625000 1.000000
vt 0.625000 1.000000
vt 0.625000 1.000000
vt 0.625000 1.000000
vt 0.625000 1.000000
vt 0.625000 1.000000
vt 0.625000 1.000000
vt 0.625000 1.000000
vt 0.631403 0.500000
vt 0.875000 0.500000
vt 0.875000 0.750000
vt 0.631403 0.750000
vt 0.625000 0.250000
vt 0.625000 0.493597
vt 0.625000 0.000000
vt 0.625000 0.250000
vt 0.625000 0.250000
vt 0.625000 0.250000
vt 0.625000 0.250000
vt 0.625000 0.250000
vt 0.625000 0.250000
vt 0.625000 0.250000
vt 0.625000 0.250000
vt 0.625000 0.250000
vt 0.625000 0.250000
vt 0.875000 0.500000
vt 0.875000 0.750000
vt 0.875000 0.500000
vt 0.875000 0.750000
vt 0.875000 0.500000
vt 0.875000 0.750000
vt 0.625000 0.000000
vt 0.625000 0.000000
vt 0.625000 0.000000
vt 0.625000 0.000000
vt 0.625000 0.000000
vt 0.625000 0.000000
vt 0.625000 0.000000
vn 0.0000 0.0000 1.0000
vn -1.0000 0.0000 0.0000
vn 1.0000 0.0000 0.0000
vn 0.9952 -0.0980 0.0000
vn -0.0064 -1.0000 0.0000
vn -0.7071 -0.7071 0.0000
vn 0.0000 -1.0000 0.0000
vn 0.0000 0.0000 -1.0000
vn 0.0980 -0.9952 0.0000
vn 0.3827 -0.9239 0.0000
vn 0.7071 -0.7071 0.0000
vn 0.9239 -0.3827 0.0000
vn 0.0000 1.0000 0.0000
vn -0.9981 0.0613 0.0000
vn 0.9458 0.3248 0.0000
vn -0.0613 0.9981 -0.0000
vn -0.2149 0.9766 -0.0000
vn -0.3827 0.9239 -0.0000
vn -0.5386 0.8425 0.0000
vn -0.6624 0.7491 0.0000
vn -0.9766 0.2149 0.0000
vn -0.9239 0.3827 0.0000
vn -0.8425 0.5386 0.0000
vn -0.7491 0.6624 0.0000
usemtl base
s 1
f 3/1/1 17/2/1 19/3/1 1/4/1 9/5/1 10/6/1
f 9/7/2 1/8/2 2/9/2 12/10/2
f 4/11/3 24/12/4 17/2/4 3/1/3
f 2/9/5 1/8/5 7/13/5 8/14/5
f 11/15/6 10/16/6 9/17/6 12/18/6
f 11/15/7 4/11/7 3/1/7 10/16/7
f 11/19/8 12/10/8 2/9/8 25/20/8 24/12/8 4/11/8
f 17/2/1 20/21/1 19/3/1
f 20/21/1 21/22/1 19/3/1
f 21/22/1 22/23/1 19/3/1
f 22/23/1 18/24/1 19/3/1
f 23/25/8 26/26/8 25/20/8
f 26/26/8 27/27/8 25/20/8
f 27/27/8 28/28/8 25/20/8
f 28/28/8 24/29/8 25/20/8
f 23/25/9 18/24/9 22/30/10 26/26/10
f 26/26/10 22/30/10 21/31/11 27/27/11
f 27/27/11 21/31/11 20/21/12 28/32/12
f 28/32/12 20/21/12 17/2/4 24/12/4
f 18/24/9 23/25/9 14/33/7 15/34/7
f 51/35/1 65/36/1 67/37/1 49/38/1 57/39/1 58/40/1
f 57/41/2 49/42/2 50/43/2 60/44/2
f 52/45/3 72/46/4 65/36/4 51/35/3
f 50/43/5 49/42/5 55/47/5 56/48/5
f 59/49/6 58/50/6 57/51/6 60/52/6
f 59/49/7 52/45/7 51/35/7 58/50/7
f 59/53/8 60/44/8 50/43/8 73/54/8 72/46/8 52/45/8
f 65/36/1 68/55/1 67/37/1
f 68/55/1 69/56/1 67/37/1
f 69/56/1 70/57/1 67/37/1
f 70/57/1 66/58/1 67/37/1
f 71/59/8 74/60/8 73/54/8
f 74/60/8 75/61/8 73/54/8
f 75/61/8 76/62/8 73/54/8
f 76/62/8 72/63/8 73/54/8
f 71/59/9 66/58/9 70/64/10 74/60/10
f 74/60/10 70/64/10 69/65/11 75/61/11
f 75/61/11 69/65/11 68/55/12 76/66/12
f 76/66/12 68/55/12 65/36/4 72/46/4
f 66/58/9 71/59/9 62/67/7 63/68/7
usemtl polished_wood
f 1/4/1 19/3/1 18/24/1 15/34/1 16/69/1 5/70/1
f 1/4/1 5/70/1 29/71/1 31/72/1 32/73/1 33/74/1 30/75/1 34/76/1 36/77/1 37/78/1 38/79/1 35/80/1 7/81/1
f 13/82/13 6/83/13 5/84/13 16/85/13
f 23/25/8 25/20/8 2/9/8 6/86/8 13/87/8 14/33/8
f 8/14/2 7/13/2 35/88/14 39/89/14
f 6/86/8 2/9/8 8/14/8 39/89/8 41/90/8 42/91/8 43/92/8 40/93/8 44/94/8 46/95/8 47/96/8 48/97/8 45/98/8
f 13/82/15 16/85/15 15/34/15 14/33/15
f 5/84/13 6/83/13 45/99/16 29/100/16
f 29/100/16 45/99/16 48/101/17 31/102/17
f 31/102/17 48/101/17 47/103/18 32/104/18
f 32/105/18 47/96/18 46/95/19 33/106/19
f 33/106/19 46/95/19 44/94/20 30/107/20
f 39/89/14 35/88/14 38/108/21 41/90/21
f 41/90/21 38/108/21 37/109/22 42/91/22
f 42/91/22 37/109/22 36/110/23 43/92/23
f 43/92/23 36/110/23 34/111/24 40/93/24
f 30/107/20 44/94/20 40/93/24 34/111/24
f 49/38/1 67/37/1 66/58/1 63/68/1 64/112/1 53/113/1
f 49/38/1 53/113/1 77/114/1 79/115/1 80/116/1 81/117/1 78/118/1 82/119/1 84/120/1 85/121/1 86/122/1 83/123/1 55/124/1
f 61/125/13 54/126/13 53/127/13 64/128/13
f 71/59/8 73/54/8 50/43/8 54/129/8 61/130/8 62/67/8
f 56/48/2 55/47/2 83/131/14 87/132/14
f 54/129/8 50/43/8 56/48/8 87/132/8 89/133/8 90/134/8 91/135/8 88/136/8 92/137/8 94/138/8 95/139/8 96/140/8 93/141/8
f 61/125/15 64/128/15 63/68/15 62/67/15
f 53/127/13 54/126/13 93/142/16 77/143/16
f 77/143/16 93/142/16 96/144/17 79/145/17
f 79/145/17 96/144/17 95/146/18 80/147/18
f 80/148/18 95/139/18 94/138/19 81/149/19
f 81/149/19 94/138/19 92/137/20 78/150/20
f 87/132/14 83/131/14 86/151/21 89/133/21
f 89/133/21 86/151/21 85/152/22 90/134/22
f 90/134/22 85/152/22 84/153/23 91/135/23
f 91/135/23 84/153/23 82/154/24 88/136/24
f 78/150/20 92/137/20 88/136/24 82/154/24
o door_left_Cube.004
v -0.581055 0.084717 -2.998151
v -0.581055 0.846779 -2.998151
v -0.581055 0.084717 -3.601855
v -0.581055 0.846779 -3.601855
v -0.505090 0.084717 -2.998151
v -0.505090 0.846779 -2.998151
v -0.505090 0.084717 -3.601855
v -0.505090 0.846779 -3.601855
vt 0.375000 0.000000
vt 0.625000 0.000000
vt 0.625000 0.250000
vt 0.375000 0.250000
vt 0.625000 0.500000
vt 0.375000 0.500000
vt 0.625000 0.750000
vt 0.375000 0.750000
vt 0.625000 1.000000
vt 0.375000 1.000000
vt 0.125000 0.500000
vt 0.125000 0.750000
vt 0.875000 0.500000
vt 0.875000 0.750000
vn -1.0000 0.0000 0.0000
vn 0.0000 0.0000 -1.0000
vn 1.0000 0.0000 0.0000
vn 0.0000 0.0000 1.0000
vn 0.0000 -1.0000 0.0000
vn 0.0000 1.0000 0.0000
usemtl polished_wood
s off
f 97/155/25 98/156/25 100/157/25 99/158/25
f 99/158/26 100/157/26 104/159/26 103/160/26
f 103/160/27 104/159/27 102/161/27 101/162/27
f 101/162/28 102/161/28 98/163/28 97/164/28
f 99/165/29 103/160/29 101/162/29 97/166/29
f 104/159/30 100/167/30 98/168/30 102/161/30
o door_right_Cube.005
v -0.581055 0.084717 -2.398151
v -0.581055 0.846779 -2.398151
v -0.581055 0.084717 -3.001855
v -0.581055 0.846779 -3.001855
v -0.505090 0.084717 -2.398151
v -0.505090 0.846779 -2.398151
v -0.505090 0.084717 -3.001855
v -0.505090 0.846779 -3.001855
vt 0.375000 0.000000
vt 0.625000 0.000000
vt 0.625000 0.250000
vt 0.375000 0.250000
vt 0.625000 0.500000
vt 0.375000 0.500000
vt 0.625000 0.750000
vt 0.375000 0.750000
vt 0.625000 1.000000
vt 0.375000 1.000000
vt 0.125000 0.500000
vt 0.125000 0.750000
vt 0.875000 0.500000
vt 0.875000 0.750000
vn -1.0000 0.0000 0.0000
vn 0.0000 0.0000 -1.0000
vn 1.0000 0.0000 0.0000
vn 0.0000 0.0000 1.0000
vn 0.0000 -1.0000 0.0000
vn 0.0000 1.0000 0.0000
usemtl polished_wood
s off
f 105/169/31 106/170/31 108/171/31 107/172/31
f 107/172/32 108/171/32 112/173/32 111/174/32
f 111/174/33 112/173/33 110/175/33 109/176/33
f 109/176/34 110/175/34 106/177/34 105/178/34
f 107/179/35 111/174/35 109/176/35 105/180/35
f 112/173/36 108/181/36 106/182/36 110/175/36
