# Blender v3.2.2 OBJ File: 'furniture.blend'
# www.blender.org
mtllib island.mtl
o island_counter_Cube.017
v 2.440841 0.018191 16.717812
v 2.440841 1.284156 16.717812
v 2.440841 0.018191 15.032459
v 2.440841 1.284156 15.032459
v 4.126194 1.284156 16.717812
v 4.126194 1.284156 15.032459
v 2.440841 1.393455 16.717812
v 2.440841 1.393455 15.032459
v 4.126194 1.393455 15.032459
v 4.126194 1.393455 16.717812
v 3.956212 0.018191 16.717812
v 4.126194 0.188173 16.717812
v 4.126194 0.188173 15.032459
v 3.956212 0.018191 15.032459
v 4.279887 1.316645 15.032459
v 4.247397 1.284156 15.032459
v 4.247397 1.284156 16.717812
v 4.279887 1.316645 16.717812
v 4.247397 1.393455 15.032459
v 4.279887 1.360965 15.032459
v 4.279887 1.360965 16.717812
v 4.247397 1.393455 16.717812
vt 0.375000 0.000000
vt 0.625000 0.000000
vt 0.625000 0.250000
vt 0.375000 0.250000
vt 0.375000 0.775215
vt 0.408568 0.750000
vt 0.625000 0.750000
vt 0.625000 1.000000
vt 0.375000 1.000000
vt 0.625000 0.500000
vt 0.408568 0.500000
vt 0.375000 0.474785
vt 0.349785 0.750000
vt 0.349785 0.500000
vt 0.125000 0.500000
vt 0.125000 0.750000
vt 0.625000 0.500000
vt 0.625000 0.750000
vt 0.625000 0.500000
vt 0.875000 0.500000
vt 0.875000 0.750000
vt 0.625000 0.750000
vt 0.625000 0.000000
vt 0.625000 0.250000
vt 0.625000 1.000000
vt 0.625000 0.500000
vt 0.625000 0.500000
vt 0.625000 0.500000
vt 0.625000 0.750000
vt 0.625000 0.750000
vt 0.625000 0.750000
vn -1.0000 0.0000 0.0000
vn 0.0000 0.0000 1.0000
vn 0.0000 0.0000 -1.0000
vn 1.0000 0.0000 0.0000
vn 0.7071 -0.7071 0.0000
vn 0.0000 -1.0000 0.0000
vn 0.0000 1.0000 0.0000
vn 0.7071 0.7071 0.0000
usemtl base
s 1
f 1/1/1 2/2/1 4/3/1 3/4/1
f 11/5/2 12/6/2 5/7/2 2/8/2 1/9/2
f 3/4/3 4/3/3 6/10/3 13/11/3 14/12/3
f 13/11/4 6/10/4 5/7/4 12/6/4
f 11/13/5 14/14/5 13/11/5 12/6/5
f 3/15/6 14/14/6 11/13/6 1/16/6
f 5/7/6 6/10/6 16/17/6 17/18/6
usemtl polished_wood
f 9/19/7 8/20/7 7/21/7 10/22/7
f 4/3/1 2/2/1 7/23/1 8/24/1
f 2/8/2 5/7/2 10/22/2 7/25/2
f 6/10/3 4/3/3 8/24/3 9/19/3
f 6/10/3 9/19/3 19/26/3 20/27/3 15/28/3 16/17/3
f 18/29/4 15/28/4 20/27/4 21/30/4
f 9/19/7 10/22/7 22/31/7 19/26/7
f 10/22/2 5/7/2 17/18/2 18/29/2 21/30/2 22/31/2
f 15/28/5 18/29/5 17/18/5 16/17/5
f 19/26/8 22/31/8 21/30/8 20/27/8
