# Blender v3.2.2 OBJ File: 'furniture.blend'
# www.blender.org
mtllib island_corner.mtl
o island_corner_Cube.011
v 2.440841 0.018191 13.262410
v 2.440841 1.284156 13.262410
v 2.440841 0.018191 11.577058
v 2.440841 1.284156 11.577058
v 4.126194 1.284156 13.262410
v 4.126194 1.284156 11.577058
v 2.440841 1.393455 13.262410
v 2.440841 1.393455 11.577058
v 4.126194 1.393455 11.577058
v 4.126194 1.393455 13.262410
v 3.956212 0.018191 13.262410
v 4.126194 0.188173 13.262410
v 4.126194 0.188173 11.577058
v 3.956212 0.018191 11.577058
v 2.440841 1.316608 11.425366
v 2.440841 1.284156 11.457819
v 4.245432 1.316608 11.425366
v 4.277885 1.316608 11.457819
v 4.245432 1.284156 11.457819
v 4.245432 1.284156 13.260656
v 4.277885 1.316608 13.260180
v 2.440841 1.393455 11.457819
v 2.440841 1.361003 11.425366
v 4.245432 1.393455 11.457819
v 4.277885 1.361003 11.457819
v 4.245432 1.361003 11.425366
v 4.277885 1.361003 13.260180
v 4.245432 1.393455 13.260656
vt 0.375000 0.000000
vt 0.625000 0.000000
vt 0.625000 0.250000
vt 0.375000 0.250000
vt 0.375000 0.775215
vt 0.408568 0.750000
vt 0.625000 0.750000
vt 0.625000 1.000000
vt 0.375000 1.000000
vt 0.625000 0.500000
vt 0.408568 0.500000
vt 0.375000 0.474785
vt 0.625000 0.500000
vt 0.625000 0.750000
vt 0.349785 0.750000
vt 0.349785 0.500000
vt 0.125000 0.500000
vt 0.125000 0.750000
vt 0.625000 0.250000
vt 0.625000 0.500000
vt 0.875000 0.500000
vt 0.875000 0.750000
vt 0.625000 0.750000
vt 0.625000 0.000000
vt 0.625000 0.250000
vt 0.625000 1.000000
vt 0.625000 0.750000
vt 0.625000 0.504422
vt 0.625000 0.504422
vt 0.625000 0.750000
vt 0.625000 0.250000
vt 0.625000 0.250000
vt 0.625000 0.250000
vt 0.625000 0.750000
vt 0.625000 0.500000
vt 0.875000 0.500000
vt 0.625000 0.495584
vt 0.625000 0.495584
vt 0.625000 0.495584
vt 0.625000 0.500000
vn -1.0000 0.0000 0.0000
vn -0.0000 0.0000 1.0000
vn 0.0049 0.0000 1.0000
vn 0.0000 0.0000 -1.0000
vn 1.0000 0.0000 0.0000
vn 0.0000 -1.0000 0.0000
vn 0.7071 -0.7071 0.0000
vn 0.0000 1.0000 0.0000
vn 0.0074 0.0000 1.0000
vn 0.0147 0.0000 0.9999
vn 0.5773 -0.5774 -0.5774
vn 0.5773 0.5774 -0.5774
vn 0.0000 -0.7071 -0.7071
vn 0.0000 0.7071 -0.7071
vn 0.7071 0.7071 0.0000
vn 0.7071 0.0000 -0.7071
usemtl base
s 1
f 1/1/1 2/2/1 4/3/1 3/4/1
f 11/5/2 12/6/2 5/7/3 2/8/2 1/9/2
f 3/4/4 4/3/4 6/10/4 13/11/4 14/12/4
f 13/11/5 6/10/5 5/7/5 12/6/5
f 5/7/6 6/10/6 19/13/6 20/14/6
f 11/15/7 14/16/7 13/11/7 12/6/7
f 3/17/6 14/16/6 11/15/6 1/18/6
f 6/10/6 4/3/6 16/19/6 19/13/6
usemtl polished_wood
f 9/20/8 8/21/8 7/22/8 10/23/8
f 4/3/1 2/2/1 7/24/1 8/25/1
f 2/8/2 5/7/3 10/23/9 7/26/2
f 21/27/5 18/28/5 25/29/5 27/30/5
f 4/3/1 8/25/1 22/31/1 23/32/1 15/33/1 16/19/1
f 10/23/9 5/7/3 20/14/10 21/27/10 27/30/10 28/34/10
f 8/21/8 9/20/8 24/35/8 22/36/8
f 9/20/8 10/23/8 28/34/8 24/35/8
f 17/37/4 15/33/4 23/32/4 26/38/4
f 17/37/11 18/28/11 19/13/11
f 24/39/12 25/40/12 26/38/12
f 15/33/13 17/37/13 19/13/13 16/19/13
f 18/28/7 21/27/7 20/14/7 19/13/7
f 22/31/14 24/39/14 26/38/14 23/32/14
f 24/35/15 28/34/15 27/30/15 25/29/15
f 17/37/16 26/38/16 25/29/16 18/28/16
