# Blender v3.2.2 OBJ File: 'furniture.blend'
# www.blender.org
mtllib pizza oven.mtl
o pizza_oven_Cube.001
v -1.182918 0.002734 18.483143
v -1.182918 2.368570 18.483143
v -1.182918 0.002734 16.117306
v -1.182918 2.368570 16.117306
v 1.182918 0.152787 18.333088
v 1.182918 2.461771 18.314091
v 1.182918 0.152787 16.267361
v 1.182918 2.461771 16.286358
v -1.182918 2.484429 18.483143
v -1.182918 3.509651 17.457920
v -1.182918 2.749776 18.448208
v -1.182918 2.997040 18.345789
v -1.182918 3.209371 18.182861
v -1.182918 3.372297 17.970531
v -1.182918 3.474718 17.723269
v -1.182918 3.509651 17.142527
v -1.182918 2.484429 16.117306
v -1.182918 3.474718 16.877180
v -1.182918 3.372297 16.629917
v -1.182918 3.209371 16.417587
v -1.182918 2.997040 16.254660
v -1.182918 2.749776 16.152241
v 1.182918 2.561073 16.286358
v 1.182918 3.439779 17.165064
v 1.182918 2.788499 16.316299
v 1.182918 3.000426 16.404083
v 1.182918 3.182412 16.543726
v 1.182918 3.322055 16.725712
v 1.182918 3.409838 16.937637
v 1.182918 3.439779 17.435385
v 1.182918 2.561073 18.314091
v 1.182918 3.409838 17.662811
v 1.182918 3.322055 17.874737
v 1.182918 3.182412 18.056723
v 1.182918 3.000426 18.196365
v 1.182918 2.788499 18.284149
v 1.182918 2.218516 16.267361
v 1.182918 2.218516 18.333088
v 1.182918 3.509651 17.142529
v 1.182918 3.474718 16.877180
v 1.182918 3.372297 16.629917
v 1.182918 3.209371 16.417587
v 1.182918 2.997040 16.254660
v 1.182918 2.749776 16.152241
v 1.182918 2.484429 16.117306
v 1.182918 3.474718 17.723269
v 1.182918 3.509651 17.457922
v 1.182918 3.372297 17.970531
v 1.182918 3.209371 18.182861
v 1.182918 2.997040 18.345789
v 1.182918 2.749776 18.448208
v 1.182918 2.484429 18.483143
v 1.182918 2.368570 16.117306
v 1.182918 0.002734 16.117306
v 1.182918 0.002734 18.483143
v 1.182918 2.368570 18.483143
v 1.075464 2.461771 16.286358
v 1.075464 2.461771 18.314091
v 1.075464 3.439779 17.165064
v 1.075464 3.409838 16.937637
v 1.075464 3.322055 16.725712
v 1.075464 3.182412 16.543726
v 1.075464 3.000426 16.404083
v 1.075464 2.788499 16.316299
v 1.075464 2.561073 16.286358
v 1.075464 3.409838 17.662811
v 1.075464 3.439779 17.435385
v 1.075464 3.322055 17.874737
v 1.075464 3.182412 18.056723
v 1.075464 3.000426 18.196365
v 1.075464 2.788499 18.284149
v 1.075464 2.561073 18.314091
v 1.075464 1.913402 16.470602
v 0.972239 1.405362 16.573826
v 0.972239 1.405362 18.026623
v 1.075464 1.913402 18.129847
v 1.075464 2.218516 16.267361
v 1.075464 0.152787 16.267361
v 1.075464 0.152787 18.333088
v 1.075464 2.218516 18.333088
v -1.022886 1.913402 16.470602
v -0.919661 1.405362 16.573826
v -0.919661 1.405362 18.026623
v -1.022886 1.913402 18.129847
v -1.179397 2.598691 17.888004
v -0.955509 3.774250 17.664116
v -1.179397 2.598691 16.712444
v -0.955509 3.774250 16.936333
v -0.003838 2.598691 17.888004
v -0.227725 3.774250 17.664116
v -0.003838 2.598691 16.712444
v -0.227725 3.774250 16.936333
v -1.179397 3.774250 17.888004
v -1.179397 3.774250 16.712444
v -0.003838 3.774250 16.712444
v -0.003838 3.774250 17.888004
v -0.955509 4.116783 17.664116
v -0.955509 4.116783 16.936333
v -0.227725 4.116783 16.936333
v -0.227725 4.116783 17.664116
v -0.967373 4.116228 17.675980
v -0.967373 4.116228 16.924469
v -0.215862 4.116228 16.924469
v -0.215862 4.116228 17.675980
v -0.967373 10.767376 17.675980
v -0.967373 10.767376 16.924469
v -0.215862 10.767376 16.924469
v -0.215862 10.767376 17.675980
v 1.075464 1.405362 18.129847
v 1.075464 1.405362 16.470602
v -1.022886 1.405362 18.129847
v -1.022886 1.405362 16.470602
v 0.831517 1.334583 17.885900
v 0.831517 1.334583 16.714548
v -0.778939 1.334583 17.885900
v -0.778939 1.334583 16.714548
v 0.972239 1.334583 18.026623
v 0.972239 1.334583 16.573826
v -0.919661 1.334583 18.026623
v -0.919661 1.334583 16.573826
v 0.831517 1.020232 17.885900
v 0.831517 1.020232 16.714548
v -0.778939 1.020232 17.885900
v -0.778939 1.020232 16.714548
vt 0.375000 0.000000
vt 0.625000 0.000000
vt 0.625000 0.250000
vt 0.375000 0.250000
vt 0.625000 0.500000
vt 0.375000 0.500000
vt 0.625000 0.750000
vt 0.375000 0.750000
vt 0.625000 1.000000
vt 0.375000 1.000000
vt 0.125000 0.500000
vt 0.125000 0.750000
vt 0.672613 0.702387
vt 0.672613 0.547613
vt 0.672613 0.547613
vt 0.672613 0.702387
vt 0.827387 0.702387
vt 0.827387 0.547613
vt 0.875000 0.500000
vt 0.875000 0.750000
vt 0.827387 0.547613
vt 0.827387 0.702387
vt 0.827387 0.702387
vt 0.827387 0.547613
vt 0.672613 0.702387
vt 0.672613 0.547613
vt 0.672613 0.547613
vt 0.827387 0.547613
vt 0.827387 0.702387
vt 0.672613 0.702387
vt 0.375000 0.000000
vt 0.625000 0.000000
vt 0.625000 0.250000
vt 0.375000 0.250000
vt 0.625000 0.500000
vt 0.375000 0.500000
vt 0.609144 0.734144
vt 0.390856 0.734144
vt 0.390856 0.734144
vt 0.609144 0.734144
vt 0.375000 0.750000
vt 0.625000 0.750000
vt 0.625000 1.000000
vt 0.375000 1.000000
vt 0.125000 0.500000
vt 0.125000 0.750000
vt 0.625000 0.503691
vt 0.625000 0.514514
vt 0.625000 0.514514
vt 0.625000 0.503691
vt 0.625000 0.750000
vt 0.625000 1.000000
vt 0.625000 0.608336
vt 0.875000 0.608336
vt 0.875000 0.641664
vt 0.625000 0.641664
vt 0.625000 0.250000
vt 0.625000 0.500000
vt 0.625000 0.580297
vt 0.875000 0.580297
vt 0.625000 0.554168
vt 0.875000 0.554168
vt 0.625000 0.500000
vt 0.875000 0.500000
vt 0.625000 0.250000
vt 0.625000 0.500000
vt 0.625000 0.250000
vt 0.625000 0.500000
vt 0.625000 0.250000
vt 0.875000 0.669703
vt 0.625000 0.669703
vt 0.875000 0.695832
vt 0.625000 0.695832
vt 0.875000 0.750000
vt 0.625000 0.750000
vt 0.625000 1.000000
vt 0.625000 1.000000
vt 0.625000 0.750000
vt 0.625000 1.000000
vt 0.625000 0.750000
vt 0.625000 0.000000
vt 0.625000 0.003691
vt 0.625000 0.014514
vt 0.625000 0.031731
vt 0.625000 0.054168
vt 0.625000 0.080297
vt 0.625000 0.108336
vt 0.625000 0.141664
vt 0.625000 0.169703
vt 0.625000 0.195832
vt 0.625000 0.218269
vt 0.625000 0.235486
vt 0.625000 0.246309
vt 0.587667 0.712667
vt 0.412333 0.712667
vt 0.412333 0.712667
vt 0.587667 0.712667
vt 0.625000 0.750000
vt 0.625000 0.500000
vt 0.625000 0.500000
vt 0.625000 0.531731
vt 0.625000 0.554168
vt 0.625000 0.580297
vt 0.625000 0.608336
vt 0.625000 0.641664
vt 0.625000 0.669703
vt 0.625000 0.695832
vt 0.625000 0.718269
vt 0.625000 0.735486
vt 0.625000 0.746309
vt 0.625000 0.750000
vt 0.625000 0.608336
vt 0.625000 0.641664
vt 0.625000 0.500000
vt 0.625000 0.750000
vt 0.625000 0.750000
vt 0.625000 0.669703
vt 0.625000 0.500000
vt 0.625000 0.695832
vt 0.625000 0.580297
vt 0.625000 0.718269
vt 0.625000 0.554168
vt 0.390856 0.515856
vt 0.609144 0.515856
vt 0.609144 0.515856
vt 0.390856 0.515856
vt 0.625000 0.735486
vt 0.625000 0.531731
vt 0.625000 0.746309
vt 0.587667 0.537333
vt 0.412333 0.537333
vt 0.412333 0.537333
vt 0.587667 0.537333
vt 0.412333 0.701759
vt 0.412333 0.701759
vt 0.412333 0.701759
vt 0.412333 0.701759
vt 0.412333 0.548241
vt 0.412333 0.548241
vt 0.412333 0.563111
vt 0.412333 0.563111
vt 0.412333 0.563111
vt 0.412333 0.563111
vt 0.412333 0.548241
vt 0.412333 0.548241
vt 0.412333 0.686889
vt 0.412333 0.686889
vt 0.412333 0.686889
vt 0.412333 0.686889
vt 0.625000 0.531731
vt 0.625000 0.514514
vt 0.625000 0.503691
vt 0.625000 0.718269
vt 0.625000 0.735486
vt 0.625000 0.746309
vn -1.0000 0.0000 0.0000
vn 0.0000 0.0000 -1.0000
vn 1.0000 0.0000 0.0000
vn 0.0000 0.0000 1.0000
vn 0.0000 -1.0000 0.0000
vn 0.0000 1.0000 0.0000
vn 0.0467 -0.9989 0.0000
vn 0.0000 -0.9989 -0.0467
vn 0.0000 -0.9989 0.0467
vn -0.0467 -0.9989 0.0000
vn 0.0000 -0.2588 0.9659
vn 0.0000 -0.5000 0.8660
vn 0.0000 0.0654 0.9979
vn 0.0000 0.9979 -0.0654
vn 0.0000 0.9979 0.0654
vn 0.0000 0.0654 -0.9979
vn 0.0000 0.9659 -0.2588
vn 0.0000 0.8660 -0.5000
vn 0.0000 0.7071 -0.7071
vn 0.0000 0.5000 -0.8660
vn 0.0000 0.2588 -0.9659
vn 0.0000 0.9659 0.2588
vn 0.0000 0.8660 0.5000
vn 0.0000 0.7071 0.7071
vn 0.0000 0.5000 0.8660
vn 0.0000 0.2588 0.9659
vn 0.0000 -0.9979 0.0654
vn 0.0000 -0.9979 -0.0654
vn 0.0000 -0.0654 0.9979
vn 0.0000 -0.0654 -0.9979
vn 0.0000 -0.9659 -0.2588
vn 0.0000 -0.8660 -0.5000
vn 0.0000 -0.9659 0.2588
vn 0.0000 -0.7071 -0.7071
vn 0.0000 -0.8660 0.5000
vn 0.0000 -0.5000 -0.8660
vn 0.0000 -0.7071 0.7071
vn 0.0000 -0.2588 -0.9659
usemtl wood
s off
f 85/1/1 93/2/1 94/3/1 87/4/1
f 87/4/2 94/3/2 95/5/2 91/6/2
f 91/6/3 95/5/3 96/7/3 89/8/3
f 89/8/4 96/7/4 93/9/4 85/10/4
f 87/11/5 91/6/5 89/8/5 85/12/5
f 90/13/3 92/14/3 99/15/3 100/16/3
f 86/17/6 88/18/6 94/19/6 93/20/6
f 88/18/6 92/14/6 95/5/6 94/19/6
f 92/14/6 90/13/6 96/7/6 95/5/6
f 90/13/6 86/17/6 93/20/6 96/7/6
f 98/21/7 97/22/7 101/23/7 102/24/7
f 88/18/1 86/17/1 97/22/1 98/21/1
f 86/17/4 90/13/4 100/16/4 97/22/4
f 92/14/2 88/18/2 98/21/2 99/15/2
f 97/22/8 100/16/8 104/25/8 101/23/8
f 99/15/9 98/21/9 102/24/9 103/26/9
f 100/16/10 99/15/10 103/26/10 104/25/10
f 107/27/6 106/28/6 105/29/6 108/30/6
s 1
f 1/31/1 2/32/1 4/33/1 3/34/1
f 3/34/2 4/33/2 53/35/2 54/36/2
f 38/37/2 5/38/2 79/39/2 80/40/2
f 55/41/4 56/42/4 2/43/4 1/44/4
f 3/45/5 54/36/5 55/41/5 1/46/5
f 25/47/11 26/48/12 63/49/12 64/50/11
f 2/43/4 56/42/4 52/51/13 9/52/13
f 39/53/14 16/54/14 10/55/15 47/56/15
f 53/35/2 4/33/2 17/57/16 45/58/16
f 16/54/14 39/53/14 40/59/17 18/60/17
f 18/60/17 40/59/17 41/61/18 19/62/18
f 19/62/18 41/61/18 42/63/19 20/64/19
f 20/65/19 42/63/19 43/66/20 21/67/20
f 21/67/20 43/66/20 44/68/21 22/69/21
f 22/69/21 44/68/21 45/58/16 17/57/16
f 47/56/15 10/55/15 15/70/22 46/71/22
f 46/71/22 15/70/22 14/72/23 48/73/23
f 48/73/23 14/72/23 13/74/24 49/75/24
f 49/75/24 13/76/24 12/77/25 50/78/25
f 50/78/25 12/77/25 11/79/26 51/80/26
f 51/80/26 11/79/26 9/52/13 52/51/13
f 4/33/1 2/32/1 9/81/1 11/82/1 12/83/1 13/84/1 14/85/1 15/86/1 10/87/1 16/88/1 18/89/1 19/90/1 20/91/1 21/92/1 22/93/1 17/57/1
f 76/94/2 109/95/2 111/96/2 84/97/2
f 58/98/3 57/99/3 65/100/3 64/50/3 63/49/3 62/101/3 61/102/3 60/103/3 59/104/3 67/105/3 66/106/3 68/107/3 69/108/3 70/109/3 71/110/3 72/111/3
f 24/112/27 30/113/28 67/105/28 59/104/27
f 23/114/29 25/47/11 64/50/11 65/100/29
f 31/115/30 6/116/2 58/98/2 72/111/30
f 30/113/28 32/117/31 66/106/31 67/105/28
f 6/116/6 8/118/6 57/99/6 58/98/6
f 8/118/4 23/114/29 65/100/29 57/99/4
f 32/117/31 33/119/32 68/107/32 66/106/31
f 29/120/33 24/112/27 59/104/27 60/103/33
f 33/119/32 34/121/34 69/108/34 68/107/32
f 28/122/35 29/120/33 60/103/33 61/102/35
f 7/123/4 37/124/4 77/125/4 78/126/4
f 34/121/34 35/127/36 70/109/36 69/108/34
f 27/128/37 28/122/35 61/102/35 62/101/37
f 5/38/6 7/123/6 78/126/6 79/39/6
f 35/127/36 36/129/38 71/110/38 70/109/36
f 26/48/12 27/128/37 62/101/37 63/49/12
f 37/124/5 38/37/5 80/40/5 77/125/5
f 36/129/38 31/115/30 72/111/30 71/110/38
f 73/130/3 110/131/3 78/126/3 77/125/3
f 110/131/3 109/95/3 79/39/3 78/126/3
f 76/94/3 73/130/3 77/125/3 80/40/3
f 109/95/3 76/94/3 80/40/3 79/39/3
f 112/132/3 81/133/3 84/97/3 111/96/3
f 83/134/2 75/135/2 117/136/2 119/137/2
f 73/130/5 76/94/5 84/97/5 81/133/5
f 110/131/4 73/130/4 81/133/4 112/132/4
f 74/138/6 75/135/6 109/95/6 110/131/6
f 83/134/6 82/139/6 112/132/6 111/96/6
f 75/135/6 83/134/6 111/96/6 109/95/6
f 82/139/6 74/138/6 110/131/6 112/132/6
f 114/140/4 116/141/4 124/142/4 122/143/4
f 75/135/1 74/138/1 118/144/1 117/136/1
f 74/138/4 82/139/4 120/145/4 118/144/4
f 82/139/3 83/134/3 119/137/3 120/145/3
f 114/140/6 113/146/6 117/136/6 118/144/6
f 115/147/6 116/141/6 120/145/6 119/137/6
f 113/146/6 115/147/6 119/137/6 117/136/6
f 116/141/6 114/140/6 118/144/6 120/145/6
f 121/148/6 122/143/6 124/142/6 123/149/6
f 116/141/3 115/147/3 123/149/3 124/142/3
f 115/147/2 113/146/2 121/148/2 123/149/2
f 113/146/1 114/140/1 122/143/1 121/148/1
usemtl wood_highlight
s off
f 101/23/4 104/25/4 108/30/4 105/29/4
f 103/26/2 102/24/2 106/28/2 107/27/2
f 104/25/3 103/26/3 107/27/3 108/30/3
f 102/24/1 101/23/1 105/29/1 106/28/1
s 1
f 8/118/3 6/116/3 56/42/3 53/35/3
f 24/112/3 29/120/3 40/59/3 39/53/3
f 29/120/3 28/122/3 41/61/3 40/59/3
f 28/122/3 27/128/3 42/150/3 41/61/3
f 27/128/3 26/48/3 43/151/3 42/150/3
f 26/48/3 25/47/3 44/152/3 43/151/3
f 25/47/3 23/114/3 45/58/3 44/152/3
f 32/117/3 30/113/3 47/56/3 46/71/3
f 33/119/3 32/117/3 46/71/3 48/73/3
f 34/121/3 33/119/3 48/73/3 49/153/3
f 35/127/3 34/121/3 49/153/3 50/154/3
f 36/129/3 35/127/3 50/154/3 51/155/3
f 31/115/3 36/129/3 51/155/3 52/51/3
f 30/113/3 24/112/3 39/53/3 47/56/3
f 6/116/3 31/115/3 52/51/3 56/42/3
f 23/114/3 8/118/3 53/35/3 45/58/3
f 37/124/3 7/123/3 54/36/3 53/35/3
f 7/123/3 5/38/3 55/41/3 54/36/3
f 38/37/3 37/124/3 53/35/3 56/42/3
f 5/38/3 38/37/3 56/42/3 55/41/3
