# Blender v3.0.1 OBJ File: ''
# www.blender.org
mtllib pizza_oven.mtl
o pizza_oven_Cube.001
v -1.179397 2.598688 0.589350
v -1.179397 3.774247 0.589350
v -1.179397 3.774247 -0.586210
v -1.179397 2.598688 -0.586210
v -0.003838 3.774247 -0.586210
v -0.003838 2.598688 -0.586210
v -0.003838 3.774247 0.589350
v -0.003838 2.598688 0.589350
v -0.227725 3.774247 0.365462
v -0.227725 3.774247 -0.362321
v -0.227725 4.116780 -0.362321
v -0.227725 4.116780 0.365462
v -0.955509 3.774247 0.365462
v -0.955509 3.774247 -0.362321
v -0.955509 4.116780 -0.362321
v -0.955509 4.116780 0.365462
v -0.967373 4.116225 0.377326
v -0.967373 4.116225 -0.374185
v -0.215862 4.116225 0.377326
v -0.215862 4.116225 -0.374185
v -0.215862 4.980608 -0.374185
v -0.967373 4.980608 -0.374185
v -0.967373 4.980608 0.377326
v -0.215862 4.980608 0.377326
v -1.182918 0.002731 1.184488
v -1.182918 2.368567 1.184489
v -1.182918 2.368567 -1.181348
v -1.182918 0.002731 -1.181349
v 1.182918 2.368567 -1.181348
v 1.182918 0.002731 -1.181349
v 1.182918 2.218513 1.034434
v 1.182918 0.152784 1.034433
v 1.075464 0.152784 1.034433
v 1.075464 2.218513 1.034434
v 1.182918 0.002731 1.184488
v 1.182918 2.368567 1.184489
v 1.182918 2.788496 -0.982355
v 1.182918 3.000423 -0.894571
v 1.075464 3.000423 -0.894571
v 1.075464 2.788496 -0.982355
v 1.182918 2.484426 1.184489
v -1.182918 2.484426 1.184489
v 1.182918 3.509648 -0.156125
v -1.182918 3.509648 -0.156127
v -1.182918 3.509648 0.159266
v 1.182918 3.509648 0.159268
v -1.182918 2.484426 -1.181348
v 1.182918 2.484426 -1.181348
v 1.182918 3.474715 -0.421474
v -1.182918 3.474715 -0.421474
v 1.182918 3.372294 -0.668737
v -1.182918 3.372294 -0.668737
v 1.182918 3.209368 -0.881067
v -1.182918 3.209368 -0.881067
v 1.182918 2.997037 -1.043994
v -1.182918 2.997037 -1.043994
v 1.182918 2.749773 -1.146413
v -1.182918 2.749773 -1.146413
v -1.182918 3.474715 0.424615
v 1.182918 3.474715 0.424615
v -1.182918 3.372294 0.671877
v 1.182918 3.372294 0.671877
v -1.182918 3.209368 0.884207
v 1.182918 3.209368 0.884207
v -1.182918 2.997037 1.047135
v 1.182918 2.997037 1.047135
v -1.182918 2.749773 1.149554
v 1.182918 2.749773 1.149554
v 1.075464 1.913399 0.831192
v 1.075464 1.405359 0.831192
v -1.022886 1.405359 0.831192
v -1.022886 1.913399 0.831192
v 1.075464 2.461768 1.015437
v 1.075464 2.461768 -1.012296
v 1.075464 2.561070 -1.012296
v 1.075464 3.182409 -0.754928
v 1.075464 3.322052 -0.572942
v 1.075464 3.409835 -0.361017
v 1.075464 3.439776 -0.133590
v 1.075464 3.439776 0.136731
v 1.075464 3.409835 0.364157
v 1.075464 3.322052 0.576083
v 1.075464 3.182409 0.758069
v 1.075464 3.000423 0.897711
v 1.075464 2.788496 0.985495
v 1.075464 2.561070 1.015437
v 1.182918 3.439776 -0.133590
v 1.182918 3.439776 0.136731
v 1.182918 2.561070 -1.012296
v 1.182918 2.561070 1.015437
v 1.182918 2.461768 1.015437
v 1.182918 3.409835 0.364157
v 1.182918 2.461768 -1.012296
v 1.182918 3.322052 0.576083
v 1.182918 3.409835 -0.361017
v 1.182918 3.182409 0.758069
v 1.182918 3.322052 -0.572942
v 1.182918 0.152784 -1.031294
v 1.182918 2.218513 -1.031294
v 1.075464 2.218513 -1.031294
v 1.075464 0.152784 -1.031294
v 1.182918 3.000423 0.897711
v 1.182918 3.182409 -0.754928
v 1.182918 2.788496 0.985495
v 1.075464 1.913399 -0.828052
v 1.075464 1.405359 -0.828052
v -1.022886 1.405359 -0.828052
v -1.022886 1.913399 -0.828052
v -0.919661 1.405359 0.727968
v 0.972239 1.405359 0.727968
v 0.972239 1.334580 0.727968
v -0.919661 1.334580 0.727968
v 0.972239 1.405359 -0.724828
v -0.919661 1.405359 -0.724828
v 0.831517 1.334580 -0.584106
v -0.778939 1.334580 -0.584106
v -0.778939 1.020229 -0.584106
v 0.831517 1.020229 -0.584106
v 0.972239 1.334580 -0.724828
v -0.919661 1.334580 -0.724828
v 0.831517 1.334580 0.587246
v -0.778939 1.334580 0.587246
v 0.831517 1.020229 0.587246
v -0.778939 1.020229 0.587246
vt 0.375000 0.000000
vt 0.625000 0.000000
vt 0.625000 0.250000
vt 0.375000 0.250000
vt 0.625000 0.500000
vt 0.375000 0.500000
vt 0.625000 0.750000
vt 0.375000 0.750000
vt 0.625000 1.000000
vt 0.375000 1.000000
vt 0.125000 0.500000
vt 0.125000 0.750000
vt 0.672613 0.702387
vt 0.672613 0.547613
vt 0.672613 0.547613
vt 0.672613 0.702387
vt 0.827387 0.702387
vt 0.827387 0.547613
vt 0.875000 0.500000
vt 0.875000 0.750000
vt 0.827387 0.547613
vt 0.827387 0.702387
vt 0.827387 0.702387
vt 0.827387 0.547613
vt 0.672613 0.702387
vt 0.672613 0.547613
vt 0.672613 0.547613
vt 0.827387 0.547613
vt 0.827387 0.702387
vt 0.672613 0.702387
vt 0.375000 0.000000
vt 0.625000 0.000000
vt 0.625000 0.250000
vt 0.375000 0.250000
vt 0.625000 0.500000
vt 0.375000 0.500000
vt 0.609144 0.734144
vt 0.390856 0.734144
vt 0.390856 0.734144
vt 0.609144 0.734144
vt 0.375000 0.750000
vt 0.625000 0.750000
vt 0.625000 1.000000
vt 0.375000 1.000000
vt 0.125000 0.500000
vt 0.125000 0.750000
vt 0.625000 0.503691
vt 0.625000 0.514514
vt 0.625000 0.514514
vt 0.625000 0.503691
vt 0.625000 0.750000
vt 0.625000 1.000000
vt 0.625000 0.608336
vt 0.875000 0.608336
vt 0.875000 0.641664
vt 0.625000 0.641664
vt 0.625000 0.250000
vt 0.625000 0.500000
vt 0.625000 0.580297
vt 0.875000 0.580297
vt 0.625000 0.554168
vt 0.875000 0.554168
vt 0.625000 0.500000
vt 0.875000 0.500000
vt 0.625000 0.250000
vt 0.625000 0.500000
vt 0.625000 0.250000
vt 0.625000 0.500000
vt 0.625000 0.250000
vt 0.875000 0.669703
vt 0.625000 0.669703
vt 0.875000 0.695832
vt 0.625000 0.695832
vt 0.875000 0.750000
vt 0.625000 0.750000
vt 0.625000 1.000000
vt 0.625000 1.000000
vt 0.625000 0.750000
vt 0.625000 1.000000
vt 0.625000 0.750000
vt 0.625000 0.000000
vt 0.625000 0.003691
vt 0.625000 0.014514
vt 0.625000 0.031731
vt 0.625000 0.054168
vt 0.625000 0.080297
vt 0.625000 0.108336
vt 0.625000 0.141664
vt 0.625000 0.169703
vt 0.625000 0.195832
vt 0.625000 0.218269
vt 0.625000 0.235486
vt 0.625000 0.246309
vt 0.587667 0.712667
vt 0.412333 0.712667
vt 0.412333 0.712667
vt 0.587667 0.712667
vt 0.625000 0.750000
vt 0.625000 0.500000
vt 0.625000 0.500000
vt 0.625000 0.531731
vt 0.625000 0.554168
vt 0.625000 0.580297
vt 0.625000 0.608336
vt 0.625000 0.641664
vt 0.625000 0.669703
vt 0.625000 0.695832
vt 0.625000 0.718269
vt 0.625000 0.735486
vt 0.625000 0.746309
vt 0.625000 0.750000
vt 0.625000 0.608336
vt 0.625000 0.641664
vt 0.625000 0.500000
vt 0.625000 0.750000
vt 0.625000 0.750000
vt 0.625000 0.669703
vt 0.625000 0.500000
vt 0.625000 0.695832
vt 0.625000 0.580297
vt 0.625000 0.718269
vt 0.625000 0.554168
vt 0.390856 0.515856
vt 0.609144 0.515856
vt 0.609144 0.515856
vt 0.390856 0.515856
vt 0.625000 0.735486
vt 0.625000 0.531731
vt 0.625000 0.746309
vt 0.587667 0.537333
vt 0.412333 0.537333
vt 0.412333 0.537333
vt 0.587667 0.537333
vt 0.412333 0.701759
vt 0.412333 0.701759
vt 0.412333 0.701759
vt 0.412333 0.701759
vt 0.412333 0.548241
vt 0.412333 0.548241
vt 0.412333 0.563111
vt 0.412333 0.563111
vt 0.412333 0.563111
vt 0.412333 0.563111
vt 0.412333 0.548241
vt 0.412333 0.548241
vt 0.412333 0.686889
vt 0.412333 0.686889
vt 0.412333 0.686889
vt 0.412333 0.686889
vt 0.625000 0.531731
vt 0.625000 0.514514
vt 0.625000 0.503691
vt 0.625000 0.718269
vt 0.625000 0.735486
vt 0.625000 0.746309
vn -1.0000 0.0000 0.0000
vn 0.0000 0.0000 -1.0000
vn 1.0000 -0.0000 0.0000
vn 0.0000 -0.0000 1.0000
vn 0.0000 -1.0000 0.0000
vn 0.0000 1.0000 0.0000
vn 0.0467 -0.9989 0.0000
vn 0.0000 -0.9989 -0.0467
vn 0.0000 -0.9989 0.0467
vn -0.0467 -0.9989 0.0000
vn 0.0000 -0.2588 0.9659
vn 0.0000 -0.5000 0.8660
vn 0.0000 0.0654 0.9979
vn 0.0000 0.9979 -0.0654
vn -0.0000 0.9979 0.0654
vn 0.0000 0.0654 -0.9979
vn 0.0000 0.9659 -0.2588
vn 0.0000 0.8660 -0.5000
vn 0.0000 0.7071 -0.7071
vn 0.0000 0.5000 -0.8660
vn 0.0000 0.2588 -0.9659
vn -0.0000 0.9659 0.2588
vn 0.0000 0.8660 0.5000
vn 0.0000 0.7071 0.7071
vn 0.0000 0.5000 0.8660
vn 0.0000 0.2588 0.9659
vn 0.0000 -0.9979 0.0654
vn 0.0000 -0.9979 -0.0654
vn 0.0000 -0.0654 0.9979
vn 0.0000 -0.0654 -0.9979
vn 0.0000 -0.9659 -0.2588
vn 0.0000 -0.8660 -0.5000
vn 0.0000 -0.9659 0.2588
vn 0.0000 -0.7071 -0.7071
vn 0.0000 -0.8660 0.5000
vn 0.0000 -0.5000 -0.8660
vn 0.0000 -0.7071 0.7071
vn 0.0000 -0.2588 -0.9659
usemtl wood
s off
f 1/1/1 2/2/1 3/3/1 4/4/1
f 4/4/2 3/3/2 5/5/2 6/6/2
f 6/6/3 5/5/3 7/7/3 8/8/3
f 8/8/4 7/7/4 2/9/4 1/10/4
f 4/11/5 6/6/5 8/8/5 1/12/5
f 9/13/3 10/14/3 11/15/3 12/16/3
f 13/17/6 14/18/6 3/19/6 2/20/6
f 14/18/6 10/14/6 5/5/6 3/19/6
f 10/14/6 9/13/6 7/7/6 5/5/6
f 9/13/6 13/17/6 2/20/6 7/7/6
f 15/21/7 16/22/7 17/23/7 18/24/7
f 14/18/1 13/17/1 16/22/1 15/21/1
f 13/17/4 9/13/4 12/16/4 16/22/4
f 10/14/2 14/18/2 15/21/2 11/15/2
f 16/22/8 12/16/8 19/25/8 17/23/8
f 11/15/9 15/21/9 18/24/9 20/26/9
f 12/16/10 11/15/10 20/26/10 19/25/10
f 21/27/6 22/28/6 23/29/6 24/30/6
s 1
f 25/31/1 26/32/1 27/33/1 28/34/1
f 28/34/2 27/33/2 29/35/2 30/36/2
f 31/37/2 32/38/2 33/39/2 34/40/2
f 35/41/4 36/42/4 26/43/4 25/44/4
f 28/45/5 30/36/5 35/41/5 25/46/5
f 37/47/11 38/48/12 39/49/12 40/50/11
f 26/43/4 36/42/4 41/51/13 42/52/13
f 43/53/14 44/54/14 45/55/15 46/56/15
f 29/35/2 27/33/2 47/57/16 48/58/16
f 44/54/14 43/53/14 49/59/17 50/60/17
f 50/60/17 49/59/17 51/61/18 52/62/18
f 52/62/18 51/61/18 53/63/19 54/64/19
f 54/65/19 53/63/19 55/66/20 56/67/20
f 56/67/20 55/66/20 57/68/21 58/69/21
f 58/69/21 57/68/21 48/58/16 47/57/16
f 46/56/15 45/55/15 59/70/22 60/71/22
f 60/71/22 59/70/22 61/72/23 62/73/23
f 62/73/23 61/72/23 63/74/24 64/75/24
f 64/75/24 63/76/24 65/77/25 66/78/25
f 66/78/25 65/77/25 67/79/26 68/80/26
f 68/80/26 67/79/26 42/52/13 41/51/13
f 27/33/1 26/32/1 42/81/1 67/82/1 65/83/1 63/84/1 61/85/1 59/86/1 45/87/1 44/88/1 50/89/1 52/90/1 54/91/1 56/92/1 58/93/1 47/57/1
f 69/94/2 70/95/2 71/96/2 72/97/2
f 73/98/3 74/99/3 75/100/3 40/50/3 39/49/3 76/101/3 77/102/3 78/103/3 79/104/3 80/105/3 81/106/3 82/107/3 83/108/3 84/109/3 85/110/3 86/111/3
f 87/112/27 88/113/28 80/105/28 79/104/27
f 89/114/29 37/47/11 40/50/11 75/100/29
f 90/115/30 91/116/2 73/98/2 86/111/30
f 88/113/28 92/117/31 81/106/31 80/105/28
f 91/116/6 93/118/6 74/99/6 73/98/6
f 93/118/4 89/114/29 75/100/29 74/99/4
f 92/117/31 94/119/32 82/107/32 81/106/31
f 95/120/33 87/112/27 79/104/27 78/103/33
f 94/119/32 96/121/34 83/108/34 82/107/32
f 97/122/35 95/120/33 78/103/33 77/102/35
f 98/123/4 99/124/4 100/125/4 101/126/4
f 96/121/34 102/127/36 84/109/36 83/108/34
f 103/128/37 97/122/35 77/102/35 76/101/37
f 32/38/6 98/123/6 101/126/6 33/39/6
f 102/127/36 104/129/38 85/110/38 84/109/36
f 38/48/12 103/128/37 76/101/37 39/49/12
f 99/124/5 31/37/5 34/40/5 100/125/5
f 104/129/38 90/115/30 86/111/30 85/110/38
f 105/130/3 106/131/3 101/126/3 100/125/3
f 106/131/3 70/95/3 33/39/3 101/126/3
f 69/94/3 105/130/3 100/125/3 34/40/3
f 70/95/3 69/94/3 34/40/3 33/39/3
f 107/132/3 108/133/3 72/97/3 71/96/3
f 109/134/2 110/135/2 111/136/2 112/137/2
f 105/130/5 69/94/5 72/97/5 108/133/5
f 106/131/4 105/130/4 108/133/4 107/132/4
f 113/138/6 110/135/6 70/95/6 106/131/6
f 109/134/6 114/139/6 107/132/6 71/96/6
f 110/135/6 109/134/6 71/96/6 70/95/6
f 114/139/6 113/138/6 106/131/6 107/132/6
f 115/140/4 116/141/4 117/142/4 118/143/4
f 110/135/1 113/138/1 119/144/1 111/136/1
f 113/138/4 114/139/4 120/145/4 119/144/4
f 114/139/3 109/134/3 112/137/3 120/145/3
f 115/140/6 121/146/6 111/136/6 119/144/6
f 122/147/6 116/141/6 120/145/6 112/137/6
f 121/146/6 122/147/6 112/137/6 111/136/6
f 116/141/6 115/140/6 119/144/6 120/145/6
f 123/148/6 118/143/6 117/142/6 124/149/6
f 116/141/3 122/147/3 124/149/3 117/142/3
f 122/147/2 121/146/2 123/148/2 124/149/2
f 121/146/1 115/140/1 118/143/1 123/148/1
usemtl wood_highlight
s off
f 17/23/4 19/25/4 24/30/4 23/29/4
f 20/26/2 18/24/2 22/28/2 21/27/2
f 19/25/3 20/26/3 21/27/3 24/30/3
f 18/24/1 17/23/1 23/29/1 22/28/1
s 1
f 93/118/3 91/116/3 36/42/3 29/35/3
f 87/112/3 95/120/3 49/59/3 43/53/3
f 95/120/3 97/122/3 51/61/3 49/59/3
f 97/122/3 103/128/3 53/150/3 51/61/3
f 103/128/3 38/48/3 55/151/3 53/150/3
f 38/48/3 37/47/3 57/152/3 55/151/3
f 37/47/3 89/114/3 48/58/3 57/152/3
f 92/117/3 88/113/3 46/56/3 60/71/3
f 94/119/3 92/117/3 60/71/3 62/73/3
f 96/121/3 94/119/3 62/73/3 64/153/3
f 102/127/3 96/121/3 64/153/3 66/154/3
f 104/129/3 102/127/3 66/154/3 68/155/3
f 90/115/3 104/129/3 68/155/3 41/51/3
f 88/113/3 87/112/3 43/53/3 46/56/3
f 91/116/3 90/115/3 41/51/3 36/42/3
f 89/114/3 93/118/3 29/35/3 48/58/3
f 99/124/3 98/123/3 30/36/3 29/35/3
f 98/123/3 32/38/3 35/41/3 30/36/3
f 31/37/3 99/124/3 29/35/3 36/42/3
f 32/38/3 31/37/3 36/42/3 35/41/3
