# Blender v3.0.1 OBJ File: ''
# www.blender.org
mtllib table.mtl
o Cube.001
v -1.806656 1.107829 2.325725
v -1.806656 0.991203 2.325725
v -1.806656 0.991203 -2.325725
v -1.806656 1.107829 -2.325725
v 1.806656 0.991203 -2.325725
v 1.806656 1.107829 -2.325725
v 1.474649 1.107829 -2.657732
v 1.474649 0.991203 -2.657732
v 1.304336 1.040789 -2.117656
v 1.266581 1.040789 -2.155411
v 1.266581 1.053396 -2.155411
v 1.304336 1.053396 -2.117656
v -1.474649 0.991203 -2.657732
v -1.474649 1.107829 -2.657732
v 1.474649 0.991203 2.657732
v 1.474649 1.107828 2.657732
v 1.806656 1.107829 2.325725
v 1.806656 0.991203 2.325725
v -1.474649 0.991203 2.657732
v -1.474649 1.107828 2.657732
v -1.703044 1.211442 2.282807
v -1.431731 1.211442 2.554119
v -1.431731 1.211442 -2.554119
v -1.703044 1.211442 -2.282807
v 1.703044 1.211442 -2.282807
v 1.431731 1.211442 -2.554119
v 1.431731 1.211442 2.554119
v 1.703044 1.211442 2.282807
v 1.406813 1.211442 2.493961
v -1.406813 1.211442 2.493961
v -1.406813 1.233376 2.493961
v 1.406813 1.233376 2.493961
v -1.642886 1.211442 2.257889
v -1.406813 1.211442 -2.493961
v -1.642886 1.211442 -2.257889
v 1.642886 1.211442 -2.257889
v 1.406813 1.211442 -2.493961
v 1.642886 1.211442 2.257889
v 1.406813 1.233376 -2.493961
v -1.406813 1.233376 -2.493961
v 1.642886 1.233376 2.257889
v -1.642886 1.233376 -2.257889
v 1.642886 1.233376 -2.257889
v -1.642886 1.233376 2.257889
v -1.273364 1.117839 -2.351298
v -1.348701 1.117839 -2.426636
v -1.451298 1.117839 -2.426636
v -1.526636 1.117839 -2.351298
v -1.526636 1.117839 -2.248702
v -1.451298 1.117839 -2.173364
v -1.348701 1.117839 -2.173364
v -1.273364 1.117839 -2.248702
v -1.273364 -0.001867 -2.351298
v -1.273364 -0.001867 -2.248702
v -1.526636 -0.001867 -2.351298
v -1.451298 -0.001867 -2.426636
v -1.348701 -0.001867 -2.426636
v -1.348701 -0.001867 -2.173364
v -1.451298 -0.001867 -2.173364
v -1.526636 -0.001867 -2.248702
v 1.451299 -0.001867 -2.173364
v 1.451299 1.117839 -2.173364
v 1.348701 1.117839 -2.173364
v 1.348701 -0.001867 -2.173364
v 1.526636 1.117839 -2.351298
v 1.451299 1.117839 -2.426636
v 1.348701 1.117839 -2.426636
v 1.273364 1.117839 -2.351298
v 1.273364 1.117839 -2.248702
v 1.526636 1.117839 -2.248702
v 1.526636 -0.001867 -2.351298
v 1.526636 -0.001867 -2.248702
v 1.273364 -0.001867 -2.351298
v 1.348701 -0.001867 -2.426636
v 1.451299 -0.001867 -2.426636
v 1.273364 -0.001867 -2.248702
v -1.348701 -0.001867 2.426636
v -1.348701 1.117839 2.426636
v -1.451298 1.117839 2.426636
v -1.451298 -0.001867 2.426636
v -1.273364 1.117839 2.248702
v -1.348701 1.117839 2.173364
v -1.451298 1.117839 2.173364
v -1.526636 1.117839 2.248702
v -1.526636 1.117839 2.351298
v -1.273364 1.117839 2.351298
v -1.273364 -0.001867 2.248702
v -1.273364 -0.001867 2.351298
v -1.526636 -0.001867 2.248702
v -1.451298 -0.001867 2.173364
v -1.348701 -0.001867 2.173364
v -1.526636 -0.001867 2.351298
v 1.451299 -0.001867 2.426636
v 1.451299 1.117839 2.426636
v 1.348701 1.117839 2.426636
v 1.348701 -0.001867 2.426636
v 1.526636 1.117839 2.248702
v 1.451299 1.117839 2.173364
v 1.348701 1.117839 2.173364
v 1.273364 1.117839 2.248702
v 1.273364 1.117839 2.351298
v 1.526636 1.117839 2.351298
v 1.526636 -0.001867 2.248702
v 1.526636 -0.001867 2.351298
v 1.273364 -0.001867 2.248702
v 1.348701 -0.001867 2.173364
v 1.451299 -0.001867 2.173364
v 1.273364 -0.001867 2.351298
v -1.304335 1.040789 -2.117656
v -1.304335 1.040789 2.117656
v -1.304335 1.053396 2.117656
v -1.304335 1.053396 -2.117656
v -1.266581 1.040789 -2.155411
v -1.266581 1.053396 -2.155411
v 1.353921 0.991203 -2.138196
v 1.353921 0.991203 2.138196
v -1.287120 0.991203 2.204996
v -1.353921 0.991203 2.138196
v 1.304336 1.040789 2.117656
v 1.304336 1.053396 2.117656
v -1.353921 0.991203 -2.138196
v -1.287120 0.991203 -2.204996
v -1.266581 1.053396 2.155411
v 1.266581 1.053396 2.155411
v -1.266581 1.040789 2.155411
v 1.266581 1.040789 2.155411
v 1.287120 0.991203 -2.204996
v 1.287120 0.991203 2.204996
v -1.592021 1.233376 2.236820
v -1.385744 1.233376 2.443097
v -1.385744 1.233376 -2.443097
v -1.592021 1.233376 -2.236820
v 1.592022 1.233376 -2.236820
v 1.385745 1.233376 -2.443097
v 1.385745 1.233376 2.443097
v 1.592022 1.233376 2.236820
vt 0.492614 0.015615
vt 0.492614 0.234385
vt 0.625000 0.234385
vt 0.625000 0.015615
vt 0.625000 0.515615
vt 0.625000 0.477029
vt 0.492614 0.477029
vt 0.492614 0.515615
vt 0.659755 0.525401
vt 0.659755 0.525401
vt 0.662367 0.523625
vt 0.662367 0.523625
vt 0.625000 0.272971
vt 0.492614 0.272971
vt 0.625000 0.772971
vt 0.625000 0.734385
vt 0.492614 0.734385
vt 0.492614 0.772971
vt 0.492614 0.977029
vt 0.625000 0.977029
vt 0.492614 0.000000
vt 0.625000 0.000000
vt 0.132169 0.732366
vt 0.125000 0.734385
vt 0.147971 0.750000
vt 0.150941 0.745127
vt 0.150941 0.504873
vt 0.147971 0.500000
vt 0.125000 0.515615
vt 0.132169 0.517634
vt 0.367831 0.517634
vt 0.375000 0.515615
vt 0.352029 0.500000
vt 0.349059 0.504873
vt 0.349059 0.745127
vt 0.352029 0.750000
vt 0.375000 0.734385
vt 0.367831 0.732366
vt 0.347335 0.742297
vt 0.347335 0.742297
vt 0.152665 0.742297
vt 0.152665 0.742297
vt 0.136331 0.731194
vt 0.152665 0.507703
vt 0.136331 0.518806
vt 0.363669 0.518806
vt 0.347335 0.507703
vt 0.363669 0.731194
vt 0.152665 0.507703
vt 0.347335 0.507703
vt 0.363669 0.731194
vt 0.136331 0.518806
vt 0.363669 0.518806
vt 0.136331 0.731194
vt 0.625000 0.574364
vt 0.699364 0.500000
vt 0.800636 0.500000
vt 0.875000 0.574364
vt 0.875000 0.675636
vt 0.800636 0.750000
vt 0.699364 0.750000
vt 0.625000 0.675636
vt 0.375000 0.574364
vt 0.375000 0.675636
vt 0.125000 0.574364
vt 0.199364 0.500000
vt 0.300636 0.500000
vt 0.300636 0.750000
vt 0.199364 0.750000
vt 0.125000 0.675636
vt 0.375000 0.074364
vt 0.625000 0.074364
vt 0.625000 0.175636
vt 0.375000 0.175636
vt 0.375000 0.324364
vt 0.625000 0.324364
vt 0.625000 0.425636
vt 0.375000 0.425636
vt 0.375000 0.824364
vt 0.625000 0.824364
vt 0.625000 0.925636
vt 0.375000 0.925636
vt 0.625000 0.574364
vt 0.699364 0.500000
vt 0.800636 0.500000
vt 0.875000 0.574364
vt 0.875000 0.675636
vt 0.800636 0.750000
vt 0.699364 0.750000
vt 0.625000 0.675636
vt 0.375000 0.574364
vt 0.375000 0.675636
vt 0.125000 0.574364
vt 0.199364 0.500000
vt 0.300636 0.500000
vt 0.300636 0.750000
vt 0.199364 0.750000
vt 0.125000 0.675636
vt 0.375000 0.074364
vt 0.625000 0.074364
vt 0.625000 0.175636
vt 0.375000 0.175636
vt 0.375000 0.324364
vt 0.625000 0.324364
vt 0.625000 0.425636
vt 0.375000 0.425636
vt 0.375000 0.824364
vt 0.625000 0.824364
vt 0.625000 0.925636
vt 0.375000 0.925636
vt 0.625000 0.574364
vt 0.699364 0.500000
vt 0.800636 0.500000
vt 0.875000 0.574364
vt 0.875000 0.675636
vt 0.800636 0.750000
vt 0.699364 0.750000
vt 0.625000 0.675636
vt 0.375000 0.574364
vt 0.375000 0.675636
vt 0.125000 0.574364
vt 0.199364 0.500000
vt 0.300636 0.500000
vt 0.300636 0.750000
vt 0.199364 0.750000
vt 0.125000 0.675636
vt 0.375000 0.074364
vt 0.625000 0.074364
vt 0.625000 0.175636
vt 0.375000 0.175636
vt 0.375000 0.324364
vt 0.625000 0.324364
vt 0.625000 0.425636
vt 0.375000 0.425636
vt 0.375000 0.824364
vt 0.625000 0.824364
vt 0.625000 0.925636
vt 0.375000 0.925636
vt 0.625000 0.574364
vt 0.699364 0.500000
vt 0.800636 0.500000
vt 0.875000 0.574364
vt 0.875000 0.675636
vt 0.800636 0.750000
vt 0.699364 0.750000
vt 0.625000 0.675636
vt 0.375000 0.574364
vt 0.375000 0.675636
vt 0.125000 0.574364
vt 0.199364 0.500000
vt 0.300636 0.500000
vt 0.300636 0.750000
vt 0.199364 0.750000
vt 0.125000 0.675636
vt 0.375000 0.074364
vt 0.625000 0.074364
vt 0.625000 0.175636
vt 0.375000 0.175636
vt 0.375000 0.324364
vt 0.625000 0.324364
vt 0.625000 0.425636
vt 0.375000 0.425636
vt 0.625000 0.824364
vt 0.375000 0.824364
vt 0.375000 0.000000
vt 0.625000 0.000000
vt 0.375000 0.000000
vt 0.625000 0.000000
vt 0.375000 0.000000
vt 0.625000 0.000000
vt 0.375000 0.000000
vt 0.625000 0.000000
vt 0.625000 0.925636
vt 0.375000 0.925636
vt 0.840245 0.525401
vt 0.840245 0.525401
vt 0.840245 0.724599
vt 0.840245 0.724599
vt 0.837633 0.523625
vt 0.837633 0.523625
vt 0.656324 0.524435
vt 0.656324 0.725565
vt 0.839054 0.728707
vt 0.852029 0.750000
vt 0.875000 0.734385
vt 0.843676 0.725565
vt 0.659755 0.724599
vt 0.659755 0.724599
vt 0.843676 0.524435
vt 0.875000 0.515615
vt 0.852029 0.500000
vt 0.839054 0.521293
vt 0.662367 0.726375
vt 0.837633 0.726375
vt 0.837633 0.726375
vt 0.662367 0.726375
vt 0.660946 0.521293
vt 0.647971 0.500000
vt 0.660946 0.728707
vt 0.647971 0.750000
vt 0.139850 0.730203
vt 0.154122 0.739905
vt 0.154122 0.510095
vt 0.139850 0.519797
vt 0.360150 0.519797
vt 0.345878 0.510095
vt 0.345878 0.739905
vt 0.360150 0.730204
vn -1.0000 0.0000 0.0000
vn 0.7071 0.0000 -0.7071
vn -0.7071 0.0000 0.7071
vn -0.7071 0.0000 -0.7071
vn 0.7071 0.0000 0.7071
vn 0.0000 0.0000 1.0000
vn 0.0000 0.0000 -1.0000
vn 1.0000 0.0000 0.0000
vn -0.5000 0.7071 0.5000
vn -0.5000 0.7071 -0.5000
vn 0.5000 0.7071 -0.5000
vn 0.5000 0.7071 0.5000
vn -0.7071 0.7071 0.0000
vn 0.0000 0.7071 -0.7071
vn 0.7071 0.7071 0.0000
vn 0.0000 0.7071 0.7071
vn 0.0000 1.0000 0.0000
vn 0.0000 -1.0000 -0.0000
vn 0.5000 -0.7071 -0.5000
vn 0.5000 -0.7071 0.5000
vn -0.5000 -0.7071 0.5000
vn -0.5000 -0.7071 -0.5000
vn 0.7071 -0.7071 -0.0000
vn 0.0000 -0.7071 -0.7071
vn -0.7071 -0.7071 -0.0000
vn 0.0000 -0.7071 0.7071
usemtl wood.002
s 1
f 1/1/1 4/2/1 3/3/1 2/4/1
f 5/5/2 8/6/2 7/7/2 6/8/2
f 9/9/3 12/10/3 11/11/3 10/12/3
f 13/13/4 3/3/4 4/2/4 14/14/4
f 15/15/5 18/16/5 17/17/5 16/18/5
f 16/18/6 20/19/6 19/20/6 15/15/6
f 14/14/7 7/7/7 8/6/7 13/13/7
f 6/8/8 17/17/8 18/16/8 5/5/8
f 20/21/3 1/1/3 2/4/3 19/22/3
f 21/23/9 1/24/9 20/25/9 22/26/9
f 23/27/10 14/28/10 4/29/10 24/30/10
f 25/31/11 6/32/11 7/33/11 26/34/11
f 27/35/12 16/36/12 17/37/12 28/38/12
f 1/24/13 21/23/13 24/30/13 4/29/13
f 14/28/14 23/27/14 26/34/14 7/33/14
f 6/8/15 25/31/15 28/38/15 17/17/15
f 16/36/16 27/35/16 22/26/16 20/25/16
f 29/39/6 32/40/6 31/41/6 30/42/6
f 33/43/17 21/23/17 22/26/17 30/42/17
f 34/44/17 23/27/17 24/30/17 35/45/17
f 36/46/17 25/31/17 26/34/17 37/47/17
f 29/39/17 27/35/17 28/38/17 38/48/17
f 35/45/17 24/30/17 21/23/17 33/43/17
f 37/47/17 26/34/17 23/27/17 34/44/17
f 38/48/17 28/38/17 25/31/17 36/46/17
f 30/42/17 22/26/17 27/35/17 29/39/17
f 34/44/7 40/49/7 39/50/7 37/47/7
f 38/48/5 41/51/5 32/40/5 29/39/5
f 35/45/4 42/52/4 40/49/4 34/44/4
f 36/46/8 43/53/8 41/51/8 38/48/8
f 33/43/1 44/54/1 42/52/1 35/45/1
f 37/47/2 39/50/2 43/53/2 36/46/2
f 30/42/3 31/41/3 44/54/3 33/43/3
f 45/55/17 46/56/17 47/57/17 48/58/17 49/59/17 50/60/17 51/61/17 52/62/17
f 53/63/8 45/55/8 52/62/8 54/64/8
f 55/65/18 56/66/18 57/67/18 53/63/18 54/64/18 58/68/18 59/69/18 60/70/18
f 60/71/1 49/72/1 48/73/1 55/74/1
f 56/75/7 47/76/7 46/77/7 57/78/7
f 61/79/6 62/80/6 63/81/6 64/82/6
f 65/83/17 66/84/17 67/85/17 68/86/17 69/87/17 63/88/17 62/89/17 70/90/17
f 71/91/8 65/83/8 70/90/8 72/92/8
f 73/93/18 74/94/18 75/95/18 71/91/18 72/92/18 61/96/18 64/97/18 76/98/18
f 76/99/1 69/100/1 68/101/1 73/102/1
f 74/103/7 67/104/7 66/105/7 75/106/7
f 77/107/6 78/108/6 79/109/6 80/110/6
f 81/111/17 82/112/17 83/113/17 84/114/17 85/115/17 79/116/17 78/117/17 86/118/17
f 87/119/8 81/111/8 86/118/8 88/120/8
f 89/121/18 90/122/18 91/123/18 87/119/18 88/120/18 77/124/18 80/125/18 92/126/18
f 92/127/1 85/128/1 84/129/1 89/130/1
f 90/131/7 83/132/7 82/133/7 91/134/7
f 93/135/6 94/136/6 95/137/6 96/138/6
f 97/139/17 98/140/17 99/141/17 100/142/17 101/143/17 95/144/17 94/145/17 102/146/17
f 103/147/8 97/139/8 102/146/8 104/148/8
f 105/149/18 106/150/18 107/151/18 103/147/18 104/148/18 93/152/18 96/153/18 108/154/18
f 108/155/1 101/156/1 100/157/1 105/158/1
f 106/159/7 99/160/7 98/161/7 107/162/7
f 51/163/5 58/164/5 54/64/5 52/62/5
f 45/55/2 53/63/2 57/78/2 46/77/2
f 47/76/4 56/75/4 55/74/4 48/73/4
f 59/165/3 50/166/3 49/72/3 60/71/3
f 62/80/5 61/79/5 72/92/5 70/90/5
f 65/83/2 71/91/2 75/106/2 66/105/2
f 67/104/4 74/103/4 73/102/4 68/101/4
f 64/167/3 63/168/3 69/100/3 76/99/3
f 78/108/5 77/107/5 88/120/5 86/118/5
f 81/111/2 87/119/2 91/134/2 82/133/2
f 83/132/4 90/131/4 89/130/4 84/129/4
f 80/169/3 79/170/3 85/128/3 92/127/3
f 94/136/5 93/135/5 104/148/5 102/146/5
f 97/139/2 103/147/2 107/162/2 98/161/2
f 99/160/4 106/159/4 105/158/4 100/157/4
f 96/171/3 95/172/3 101/156/3 108/155/3
f 58/164/6 51/163/6 50/173/6 59/174/6
f 109/175/8 112/176/8 111/177/8 110/178/8
f 10/12/6 11/11/6 114/179/6 113/180/6
f 115/181/18 5/5/18 18/16/18 116/182/18
f 117/183/18 19/184/18 2/185/18 118/186/18
f 113/180/5 114/179/5 112/176/5 109/175/5
f 119/187/1 120/188/1 12/10/1 9/9/1
f 121/189/18 3/190/18 13/191/18 122/192/18
f 12/10/18 120/188/18 124/193/18 123/194/18 111/177/18 112/176/18 114/179/18 11/11/18
f 125/195/7 123/194/7 124/193/7 126/196/7
f 127/197/18 8/198/18 5/5/18 115/181/18
f 118/186/18 2/185/18 3/190/18 121/189/18
f 126/196/4 124/193/4 120/188/4 119/187/4
f 128/199/18 15/200/18 19/184/18 117/183/18
f 116/182/18 18/16/18 15/200/18 128/199/18
f 122/192/18 13/191/18 8/198/18 127/197/18
f 125/195/19 117/183/19 118/186/19 110/178/19
f 109/175/20 121/189/20 122/192/20 113/180/20
f 10/12/21 127/197/21 115/181/21 9/9/21
f 119/187/22 116/182/22 128/199/22 126/196/22
f 110/178/23 118/186/23 121/189/23 109/175/23
f 126/196/24 128/199/24 117/183/24 125/195/24
f 116/182/25 119/187/25 9/9/25 115/181/25
f 127/197/26 10/12/26 113/180/26 122/192/26
f 110/178/2 111/177/2 123/194/2 125/195/2
f 129/201/17 44/54/17 31/41/17 130/202/17
f 131/203/17 40/49/17 42/52/17 132/204/17
f 133/205/17 43/53/17 39/50/17 134/206/17
f 135/207/17 32/40/17 41/51/17 136/208/17
f 132/204/17 42/52/17 44/54/17 129/201/17
f 134/206/17 39/50/17 40/49/17 131/203/17
f 136/208/17 41/51/17 43/53/17 133/205/17
f 130/202/17 31/41/17 32/40/17 135/207/17
usemtl wood_highlight.002
f 132/204/17 129/201/17 130/202/17 135/207/17 136/208/17 133/205/17 134/206/17 131/203/17
